<svg width="1390" height="669" viewBox="0 0 1390 669" fill="none" xmlns="http://www.w3.org/2000/svg">
<path opacity="0.1" d="M1294.37 0.03125H95.6265C42.8135 0.03125 0 42.8417 0 95.6511V572.392C0 625.201 42.8135 668.012 95.6265 668.012H1294.37C1347.19 668.012 1390 625.201 1390 572.392V95.6511C1390 42.8417 1347.19 0.03125 1294.37 0.03125Z" fill="url(#paint0_linear_299_3)"/>
<path d="M742.082 364.936L828.761 451.489L1027.46 334.021L1204.54 462.114L1266.85 434.914L1310.17 466.727V580.88H742.082V364.936Z" fill="#BA2D8D"/>
<path d="M828.762 451.489V580.88" stroke="#A3277B" stroke-miterlimit="10" stroke-dasharray="5 5"/>
<path d="M1266.55 434.914V580.88" stroke="#A3277B" stroke-miterlimit="10" stroke-dasharray="5 5"/>
<path d="M1026.13 334.021V580.88" stroke="#A3277B" stroke-miterlimit="10" stroke-dasharray="5 5"/>
<path d="M950.195 395.671L917.481 362.959C917.325 362.819 917.191 362.657 917.081 362.48C912.947 357.846 913.786 349.678 919.078 343.088L956.666 297.036C973.802 275.986 997.968 261.727 1021.5 258.772L1042.55 256.136L1087.78 250.464L1076.66 262.207L950.195 395.671Z" fill="url(#paint1_linear_299_3)"/>
<path opacity="0.05" d="M950.189 395.671L938.965 384.447C967.574 337.222 1002.41 294.064 1042.54 256.136L1087.78 250.464L1076.65 262.207L950.189 395.671Z" fill="#21292E"/>
<path d="M1026.13 471.6L1058.87 504.332C1059.01 504.48 1059.16 504.614 1059.33 504.731C1063.96 508.845 1072.15 508.006 1078.72 502.634L1124.78 465.089C1145.83 447.954 1160.09 423.79 1163.04 400.284L1165.68 379.255L1171.39 334.021L1159.65 345.165L1026.13 471.6Z" fill="url(#paint2_linear_299_3)"/>
<path opacity="0.05" d="M1026.13 471.6L1037.38 482.843C1084.6 454.227 1127.75 419.385 1165.68 379.255L1171.39 334.021L1159.65 345.165L1026.13 471.6Z" fill="#21292E"/>
<path d="M1225.27 171.7C1059.06 204.532 950.195 395.671 950.195 395.671L988.142 433.616L1026.09 471.56C1026.09 471.56 1217.36 362.74 1250.12 196.543C1250.8 193.135 1250.63 189.61 1249.62 186.283C1248.62 182.956 1246.8 179.929 1244.34 177.471C1241.89 175.013 1238.86 173.2 1235.53 172.193C1232.2 171.187 1228.68 171.017 1225.27 171.7Z" fill="#FFFFFA"/>
<path d="M1193.37 258.452L1192.95 258.892C1176.69 274.868 1157 281.239 1148.79 273.051C1140.58 264.863 1146.95 245.092 1162.97 228.916L1163.41 228.476C1179.75 212.14 1199.7 205.59 1207.99 213.878C1216.28 222.166 1209.73 242.076 1193.37 258.452Z" fill="#460069"/>
<path opacity="0.1" d="M1192.9 251.383L1192.58 251.722C1187.52 249.662 1182.93 246.611 1179.07 242.749C1175.21 238.888 1172.17 234.293 1170.11 229.235L1170.43 228.916C1182.69 216.674 1197.65 211.761 1203.86 217.972C1210.07 224.183 1205.16 239.141 1192.9 251.383Z" fill="white"/>
<path d="M1218.74 203.073C1226.89 211.23 1234.5 219.902 1241.53 229.035C1245.07 218.352 1247.94 207.461 1250.14 196.423C1250.8 193.036 1250.62 189.538 1249.61 186.237C1248.61 182.935 1246.8 179.932 1244.36 177.492C1241.92 175.051 1238.92 173.248 1235.62 172.242C1232.32 171.235 1228.82 171.056 1225.43 171.719C1214.39 173.915 1203.5 176.79 1192.82 180.327C1201.94 187.346 1210.6 194.944 1218.74 203.073V203.073Z" fill="url(#paint3_linear_299_3)"/>
<path d="M950.194 395.671L1026.09 471.56C1024.46 473.189 1022.24 474.104 1019.94 474.104C1017.63 474.104 1015.42 473.189 1013.79 471.56L950.154 407.933C948.524 406.301 947.609 404.089 947.609 401.782C947.609 399.476 948.524 397.264 950.154 395.631L950.194 395.671Z" fill="#170947"/>
<path d="M994.611 440.186C1009.03 427.524 1025.97 411.608 1043.7 393.894C1089.98 347.602 1123.99 306.562 1119.6 302.208C1115.2 297.855 1074.18 331.845 1027.9 378.097C1010.17 395.811 994.272 412.766 981.609 427.185L994.611 440.186Z" fill="url(#paint4_linear_299_3)"/>
<path d="M1013.83 471.6L982.013 439.786L950.197 407.973C950.197 407.973 886.766 463.252 897.531 524.263C958.546 535.067 1013.83 471.6 1013.83 471.6Z" fill="url(#paint5_linear_299_3)"/>
<path opacity="0.3" d="M1003.4 461.175L982.77 440.545L962.159 419.936C962.159 419.936 914.885 461.874 919.299 504.012C961.44 508.426 1003.4 461.175 1003.4 461.175Z" fill="#FFFFFA"/>
<path opacity="0.1" d="M996.611 454.385L981.991 439.786L967.392 425.168C967.392 425.168 939.251 449.532 944.644 477.092C972.265 482.524 996.611 454.385 996.611 454.385Z" fill="#FFFFFA"/>
<g opacity="0.5">
<path d="M1148.17 580.161L1331.27 397.069" stroke="#F8469E" stroke-width="2" stroke-miterlimit="10"/>
<path d="M1327.9 400.444L1313.48 386.025L1333.17 380.733L1352.89 375.461L1347.61 395.172L1342.32 414.863L1327.9 400.444Z" fill="#F8469E"/>
</g>
<g opacity="0.5">
<path d="M742.094 386.265L925.218 203.173" stroke="#943D84" stroke-width="2" stroke-miterlimit="10"/>
<path d="M921.842 206.548L907.422 192.109L927.114 186.837L946.827 181.565L941.554 201.256L936.262 220.967L921.842 206.548Z" fill="#943D84"/>
</g>
<path opacity="0.5" d="M1090.34 231.951L1105.62 174.955L1120.88 117.979L1063.87 133.256L1006.89 148.514L1027.67 169.283L905.855 291.065L947.777 332.963L1069.57 211.182L1090.34 231.951Z" fill="url(#paint6_linear_299_3)"/>
<path opacity="0.1" d="M1299.45 326.013L1309.41 288.808L1319.38 251.603L1282.17 261.568L1244.96 271.553L1258.53 285.093L1042.37 501.237L1069.73 528.596L1285.89 312.453L1299.45 326.013Z" fill="url(#paint7_linear_299_3)"/>
<path opacity="0.1" d="M1314.54 373.664L1316.96 342.669L1285.94 345.085L1293.05 352.195L1261.38 383.869L1275.73 398.247L1307.43 366.554L1314.54 373.664Z" fill="url(#paint8_linear_299_3)"/>
<path d="M1321.83 207.507L1326.31 190.772L1330.8 174.036L1314.06 178.53L1297.33 183.003L1303.44 189.114L1279.47 213.039L1291.78 225.341L1315.72 201.416L1321.83 207.507Z" fill="url(#paint9_linear_299_3)"/>
<path d="M1223.53 271.913C1223.19 272.612 1222.85 273.311 1222.47 273.91C1265.59 323.837 1290.38 368.112 1279.37 379.195C1269.15 389.42 1230.54 368.97 1185.3 331.745C1169.45 318.724 1152.77 303.626 1136.21 287.051C1120.02 270.913 1104.65 253.97 1090.16 236.285C1053.79 191.79 1033.95 154.006 1044.06 143.9C1055.01 132.936 1098.42 157.121 1147.68 199.339L1149.67 198.261C1098.38 153.966 1054.69 130.36 1042.56 142.343C1031.38 153.526 1050.55 191.511 1088.34 237.543C1101.66 253.759 1117.3 270.994 1134.69 288.409C1151.51 305.204 1168.17 320.362 1183.91 333.383C1230.68 372.026 1269.45 391.837 1280.77 380.533C1293.09 368.451 1268.77 323.916 1223.53 271.913Z" fill="#4F0985"/>
<path d="M1146.6 441.424C1146.17 442.114 1145.7 442.78 1145.2 443.421C1162.06 469.583 1169.17 489.474 1162.26 496.403C1155.35 503.333 1134.85 495.984 1108.17 478.63C1082.21 461.794 1050.47 435.653 1019.1 404.259C986.921 372.106 960.258 339.494 943.482 313.292C927.005 287.51 920.094 267.958 926.945 261.108C933.795 254.259 952.769 260.949 977.954 276.905L979.951 275.487C953.268 258.552 933.136 252.022 925.507 259.651C917.878 267.279 924.568 287.929 941.984 315.089C958.661 341.051 985.004 373.004 1017.64 405.716C1049.47 437.53 1080.71 463.372 1106.45 480.127C1134.56 498.48 1155.91 505.77 1163.81 497.861C1171.72 489.953 1164.47 469.064 1146.6 441.424Z" fill="#4F0985"/>
<path opacity="0.5" d="M947.858 358.266L956.806 324.815L965.773 291.364L932.32 300.331L898.866 309.278L911.049 321.48L863.156 369.37L887.762 393.974L935.655 346.084L947.858 358.266Z" fill="url(#paint10_linear_299_3)"/>
<path d="M930.005 276.866L934.479 260.15L938.972 243.415L922.236 247.908L905.499 252.381L911.611 258.472L887.664 282.417L899.967 294.719L923.913 270.774L930.005 276.866Z" fill="url(#paint11_linear_299_3)"/>
<defs>
<linearGradient id="paint0_linear_299_3" x1="32.3948" y1="17.7253" x2="1366.6" y2="654.725" gradientUnits="userSpaceOnUse">
<stop stop-color="white"/>
<stop offset="0.09" stop-color="white" stop-opacity="0.9"/>
<stop offset="0.54" stop-color="white" stop-opacity="0.42"/>
<stop offset="0.86" stop-color="white" stop-opacity="0.12"/>
<stop offset="1" stop-color="white" stop-opacity="0"/>
</linearGradient>
<linearGradient id="paint1_linear_299_3" x1="924.171" y1="368.411" x2="1083.9" y2="239.409" gradientUnits="userSpaceOnUse">
<stop stop-color="#6121B3"/>
<stop offset="1" stop-color="#8228BB"/>
</linearGradient>
<linearGradient id="paint2_linear_299_3" x1="1027.89" y1="496.803" x2="1187.62" y2="367.781" gradientUnits="userSpaceOnUse">
<stop stop-color="#6121B3"/>
<stop offset="1" stop-color="#8228BB"/>
</linearGradient>
<linearGradient id="paint3_linear_299_3" x1="1192.82" y1="200.138" x2="1250.54" y2="200.138" gradientUnits="userSpaceOnUse">
<stop stop-color="#6121B3"/>
<stop offset="1" stop-color="#8228BB"/>
</linearGradient>
<linearGradient id="paint4_linear_299_3" x1="981.689" y1="370.947" x2="1120.06" y2="370.947" gradientUnits="userSpaceOnUse">
<stop stop-color="#6121B3"/>
<stop offset="1" stop-color="#8228BB"/>
</linearGradient>
<linearGradient id="paint5_linear_299_3" x1="898.37" y1="520.568" x2="982.327" y2="439.681" gradientUnits="userSpaceOnUse">
<stop stop-color="#FFF6B1"/>
<stop offset="0.48" stop-color="#FDEA50"/>
<stop offset="1" stop-color="#FF7D32"/>
</linearGradient>
<linearGradient id="paint6_linear_299_3" x1="1150.11" y1="88.695" x2="936.229" y2="302.593" gradientUnits="userSpaceOnUse">
<stop stop-color="white"/>
<stop offset="1" stop-color="white" stop-opacity="0"/>
</linearGradient>
<linearGradient id="paint7_linear_299_3" x1="1056.06" y1="514.927" x2="1319.36" y2="251.6" gradientUnits="userSpaceOnUse">
<stop stop-color="white" stop-opacity="0"/>
<stop offset="1" stop-color="white"/>
</linearGradient>
<linearGradient id="paint8_linear_299_3" x1="1269.15" y1="390.466" x2="1317.69" y2="341.919" gradientUnits="userSpaceOnUse">
<stop stop-color="white" stop-opacity="0"/>
<stop offset="1" stop-color="white"/>
</linearGradient>
<linearGradient id="paint9_linear_299_3" x1="1285.96" y1="218.591" x2="1331.54" y2="173.554" gradientUnits="userSpaceOnUse">
<stop stop-color="#5622B2"/>
<stop offset="0.19" stop-color="#6024B4"/>
<stop offset="1" stop-color="#842DBA"/>
</linearGradient>
<linearGradient id="paint10_linear_299_3" x1="863.156" y1="342.669" x2="965.773" y2="342.669" gradientUnits="userSpaceOnUse">
<stop stop-color="white"/>
<stop offset="1" stop-color="white" stop-opacity="0"/>
</linearGradient>
<linearGradient id="paint11_linear_299_3" x1="894.135" y1="287.969" x2="939.708" y2="242.912" gradientUnits="userSpaceOnUse">
<stop stop-color="#5622B2"/>
<stop offset="0.19" stop-color="#6024B4"/>
<stop offset="1" stop-color="#842DBA"/>
</linearGradient>
</defs>
</svg>
