<svg width="1390" height="873" viewBox="0 0 1390 873" fill="none" xmlns="http://www.w3.org/2000/svg">
<g clip-path="url(#clip0_104_407)">
<path opacity="0.1" d="M1294.37 115.031H95.6265C42.8135 115.031 0 157.842 0 210.651V687.392C0 740.201 42.8135 783.012 95.6265 783.012H1294.37C1347.19 783.012 1390 740.201 1390 687.392V210.651C1390 157.842 1347.19 115.031 1294.37 115.031Z" fill="url(#paint0_linear_104_407)"/>
<path d="M742.084 479.936L828.763 566.489L1027.47 449.021L1204.54 577.114L1266.85 549.914L1310.17 581.727V695.88H742.084V479.936Z" fill="#BA2D8D"/>
<path d="M828.764 566.489V695.88" stroke="#A3277B" stroke-miterlimit="10" stroke-dasharray="5 5"/>
<path d="M1266.55 549.914V695.88" stroke="#A3277B" stroke-miterlimit="10" stroke-dasharray="5 5"/>
<path d="M1026.13 449.021V695.88" stroke="#A3277B" stroke-miterlimit="10" stroke-dasharray="5 5"/>
<path d="M110.077 199.014V208.812H125.878V217.92H110.077V228.546H127.948V237.999H98.278V189.561H127.948V199.014H110.077ZM159.275 189.561C164.381 189.561 168.843 190.573 172.661 192.597C176.479 194.621 179.423 197.473 181.493 201.153C183.609 204.787 184.667 208.996 184.667 213.78C184.667 218.518 183.609 222.727 181.493 226.407C179.423 230.087 176.456 232.939 172.592 234.963C168.774 236.987 164.335 237.999 159.275 237.999H141.128V189.561H159.275ZM158.516 227.787C162.978 227.787 166.451 226.568 168.935 224.13C171.419 221.692 172.661 218.242 172.661 213.78C172.661 209.318 171.419 205.845 168.935 203.361C166.451 200.877 162.978 199.635 158.516 199.635H152.927V227.787H158.516ZM194.78 213.711C194.78 208.927 195.815 204.672 197.885 200.946C199.955 197.174 202.83 194.253 206.51 192.183C210.236 190.067 214.445 189.009 219.137 189.009C224.887 189.009 229.809 190.527 233.903 193.563C237.997 196.599 240.734 200.739 242.114 205.983H229.142C228.176 203.959 226.796 202.418 225.002 201.36C223.254 200.302 221.253 199.773 218.999 199.773C215.365 199.773 212.421 201.038 210.167 203.568C207.913 206.098 206.786 209.479 206.786 213.711C206.786 217.943 207.913 221.324 210.167 223.854C212.421 226.384 215.365 227.649 218.999 227.649C221.253 227.649 223.254 227.12 225.002 226.062C226.796 225.004 228.176 223.463 229.142 221.439H242.114C240.734 226.683 237.997 230.823 233.903 233.859C229.809 236.849 224.887 238.344 219.137 238.344C214.445 238.344 210.236 237.309 206.51 235.239C202.83 233.123 199.955 230.202 197.885 226.476C195.815 222.75 194.78 218.495 194.78 213.711Z" fill="white"/>
<path d="M102.048 264.703V271.231H109.728V274.207H102.048V281.023H110.688V283.999H98.4V261.727H110.688V264.703H102.048ZM133.453 283.999H129.805L118.829 267.391V283.999H115.181V261.727H118.829L129.805 278.303V261.727H133.453V283.999ZM152.612 261.759V264.735H146.692V283.999H143.044V264.735H137.092V261.759H152.612ZM167.858 283.999L162.738 275.103H159.954V283.999H156.306V261.759H163.986C165.693 261.759 167.133 262.057 168.306 262.655C169.501 263.252 170.386 264.052 170.962 265.055C171.56 266.057 171.858 267.177 171.858 268.415C171.858 269.865 171.432 271.188 170.578 272.383C169.746 273.556 168.456 274.356 166.706 274.783L172.21 283.999H167.858ZM159.954 272.191H163.986C165.352 272.191 166.376 271.849 167.058 271.167C167.762 270.484 168.114 269.567 168.114 268.415C168.114 267.263 167.773 266.367 167.09 265.727C166.408 265.065 165.373 264.735 163.986 264.735H159.954V272.191ZM180.173 264.703V271.231H187.853V274.207H180.173V281.023H188.813V283.999H176.525V261.727H188.813V264.703H180.173ZM208.858 268.383C208.858 269.513 208.592 270.58 208.058 271.583C207.525 272.585 206.672 273.407 205.498 274.047C204.325 274.665 202.821 274.975 200.986 274.975H196.954V283.999H193.306V261.759H200.986C202.693 261.759 204.133 262.057 205.306 262.655C206.501 263.231 207.386 264.02 207.962 265.023C208.56 266.025 208.858 267.145 208.858 268.383ZM200.986 271.999C202.373 271.999 203.408 271.689 204.09 271.071C204.773 270.431 205.114 269.535 205.114 268.383C205.114 265.951 203.738 264.735 200.986 264.735H196.954V271.999H200.986ZM223.89 283.999L218.77 275.103H215.986V283.999H212.338V261.759H220.018C221.724 261.759 223.164 262.057 224.338 262.655C225.532 263.252 226.418 264.052 226.994 265.055C227.591 266.057 227.89 267.177 227.89 268.415C227.89 269.865 227.463 271.188 226.61 272.383C225.778 273.556 224.487 274.356 222.738 274.783L228.242 283.999H223.89ZM215.986 272.191H220.018C221.383 272.191 222.407 271.849 223.09 271.167C223.794 270.484 224.146 269.567 224.146 268.415C224.146 267.263 223.804 266.367 223.122 265.727C222.439 265.065 221.404 264.735 220.018 264.735H215.986V272.191ZM236.204 264.703V271.231H243.884V274.207H236.204V281.023H244.844V283.999H232.556V261.727H244.844V264.703H236.204ZM267.61 283.999H263.962L252.986 267.391V283.999H249.338V261.727H252.986L263.962 278.303V261.727H267.61V283.999ZM276.048 264.703V271.231H283.728V274.207H276.048V281.023H284.688V283.999H272.4V261.727H284.688V264.703H276.048ZM292.797 261.759V275.935C292.797 277.62 293.235 278.889 294.109 279.743C295.005 280.596 296.243 281.023 297.821 281.023C299.421 281.023 300.659 280.596 301.533 279.743C302.429 278.889 302.877 277.62 302.877 275.935V261.759H306.525V275.871C306.525 277.684 306.131 279.22 305.341 280.479C304.552 281.737 303.496 282.676 302.173 283.295C300.851 283.913 299.389 284.223 297.789 284.223C296.189 284.223 294.728 283.913 293.405 283.295C292.104 282.676 291.069 281.737 290.301 280.479C289.533 279.22 289.149 277.684 289.149 275.871V261.759H292.797ZM322.827 283.999L317.707 275.103H314.923V283.999H311.275V261.759H318.955C320.662 261.759 322.102 262.057 323.275 262.655C324.47 263.252 325.355 264.052 325.931 265.055C326.528 266.057 326.827 267.177 326.827 268.415C326.827 269.865 326.4 271.188 325.547 272.383C324.715 273.556 323.424 274.356 321.675 274.783L327.179 283.999H322.827ZM314.923 272.191H318.955C320.32 272.191 321.344 271.849 322.027 271.167C322.731 270.484 323.083 269.567 323.083 268.415C323.083 267.263 322.742 266.367 322.059 265.727C321.376 265.065 320.342 264.735 318.955 264.735H314.923V272.191ZM338.822 284.223C337.328 284.223 335.984 283.967 334.79 283.455C333.595 282.921 332.656 282.175 331.974 281.215C331.291 280.255 330.95 279.135 330.95 277.855H334.854C334.939 278.815 335.312 279.604 335.974 280.223C336.656 280.841 337.606 281.151 338.822 281.151C340.08 281.151 341.062 280.852 341.766 280.255C342.47 279.636 342.822 278.847 342.822 277.887C342.822 277.14 342.598 276.532 342.15 276.063C341.723 275.593 341.179 275.231 340.518 274.975C339.878 274.719 338.982 274.441 337.83 274.143C336.379 273.759 335.195 273.375 334.278 272.991C333.382 272.585 332.614 271.967 331.974 271.135C331.334 270.303 331.014 269.193 331.014 267.807C331.014 266.527 331.334 265.407 331.974 264.447C332.614 263.487 333.51 262.751 334.662 262.239C335.814 261.727 337.147 261.471 338.662 261.471C340.816 261.471 342.576 262.015 343.942 263.103C345.328 264.169 346.096 265.641 346.246 267.519H342.214C342.15 266.708 341.766 266.015 341.062 265.439C340.358 264.863 339.43 264.575 338.278 264.575C337.232 264.575 336.379 264.841 335.718 265.375C335.056 265.908 334.726 266.676 334.726 267.679C334.726 268.361 334.928 268.927 335.334 269.375C335.76 269.801 336.294 270.143 336.934 270.399C337.574 270.655 338.448 270.932 339.558 271.231C341.03 271.636 342.224 272.041 343.142 272.447C344.08 272.852 344.87 273.481 345.51 274.335C346.171 275.167 346.502 276.287 346.502 277.695C346.502 278.825 346.192 279.892 345.574 280.895C344.976 281.897 344.091 282.708 342.918 283.327C341.766 283.924 340.4 284.223 338.822 284.223ZM368.566 261.759V283.999H364.918V274.271H354.454V283.999H350.806V261.759H354.454V271.295H364.918V261.759H368.566ZM377.017 261.759V283.999H373.369V261.759H377.017ZM397.358 268.383C397.358 269.513 397.092 270.58 396.558 271.583C396.025 272.585 395.172 273.407 393.998 274.047C392.825 274.665 391.321 274.975 389.486 274.975H385.454V283.999H381.806V261.759H389.486C391.193 261.759 392.633 262.057 393.806 262.655C395.001 263.231 395.886 264.02 396.462 265.023C397.06 266.025 397.358 267.145 397.358 268.383ZM389.486 271.999C390.873 271.999 391.908 271.689 392.59 271.071C393.273 270.431 393.614 269.535 393.614 268.383C393.614 265.951 392.238 264.735 389.486 264.735H385.454V271.999H389.486ZM416.414 261.759C418.782 261.759 420.851 262.217 422.622 263.135C424.414 264.031 425.79 265.332 426.75 267.039C427.731 268.724 428.222 270.697 428.222 272.959C428.222 275.22 427.731 277.183 426.75 278.847C425.79 280.511 424.414 281.791 422.622 282.687C420.851 283.561 418.782 283.999 416.414 283.999H409.15V261.759H416.414ZM416.414 281.023C419.017 281.023 421.011 280.319 422.398 278.911C423.785 277.503 424.478 275.519 424.478 272.959C424.478 270.377 423.785 268.361 422.398 266.911C421.011 265.46 419.017 264.735 416.414 264.735H412.798V281.023H416.414ZM435.486 264.703V271.231H443.166V274.207H435.486V281.023H444.126V283.999H431.838V261.727H444.126V264.703H435.486ZM467.787 261.759L459.435 283.999H455.211L446.827 261.759H450.731L457.323 280.255L463.947 261.759H467.787ZM474.486 264.703V271.231H482.166V274.207H474.486V281.023H483.126V283.999H470.838V261.727H483.126V264.703H474.486ZM491.267 281.055H498.787V283.999H487.619V261.759H491.267V281.055ZM511.982 284.223C509.912 284.223 508.003 283.743 506.254 282.783C504.526 281.801 503.15 280.447 502.126 278.719C501.123 276.969 500.622 275.007 500.622 272.831C500.622 270.655 501.123 268.703 502.126 266.975C503.15 265.247 504.526 263.903 506.254 262.943C508.003 261.961 509.912 261.471 511.982 261.471C514.072 261.471 515.982 261.961 517.71 262.943C519.459 263.903 520.835 265.247 521.838 266.975C522.84 268.703 523.342 270.655 523.342 272.831C523.342 275.007 522.84 276.969 521.838 278.719C520.835 280.447 519.459 281.801 517.71 282.783C515.982 283.743 514.072 284.223 511.982 284.223ZM511.982 281.055C513.454 281.055 514.766 280.724 515.918 280.063C517.07 279.38 517.966 278.42 518.606 277.183C519.267 275.924 519.598 274.473 519.598 272.831C519.598 271.188 519.267 269.748 518.606 268.511C517.966 267.273 517.07 266.324 515.918 265.663C514.766 265.001 513.454 264.671 511.982 264.671C510.51 264.671 509.198 265.001 508.046 265.663C506.894 266.324 505.987 267.273 505.326 268.511C504.686 269.748 504.366 271.188 504.366 272.831C504.366 274.473 504.686 275.924 505.326 277.183C505.987 278.42 506.894 279.38 508.046 280.063C509.198 280.724 510.51 281.055 511.982 281.055ZM542.483 268.383C542.483 269.513 542.217 270.58 541.683 271.583C541.15 272.585 540.297 273.407 539.123 274.047C537.95 274.665 536.446 274.975 534.611 274.975H530.579V283.999H526.931V261.759H534.611C536.318 261.759 537.758 262.057 538.931 262.655C540.126 263.231 541.011 264.02 541.587 265.023C542.185 266.025 542.483 267.145 542.483 268.383ZM534.611 271.999C535.998 271.999 537.033 271.689 537.715 271.071C538.398 270.431 538.739 269.535 538.739 268.383C538.739 265.951 537.363 264.735 534.611 264.735H530.579V271.999H534.611ZM569.387 261.759V283.999H565.739V268.767L558.955 283.999H556.427L549.611 268.767V283.999H545.963V261.759H549.899L557.707 279.199L565.483 261.759H569.387ZM577.829 264.703V271.231H585.509V274.207H577.829V281.023H586.469V283.999H574.181V261.727H586.469V264.703H577.829ZM609.235 283.999H605.587L594.611 267.391V283.999H590.963V261.727H594.611L605.587 278.303V261.727H609.235V283.999ZM628.393 261.759V264.735H622.473V283.999H618.825V264.735H612.873V261.759H628.393ZM639.184 272.831C639.184 270.655 639.685 268.703 640.688 266.975C641.712 265.247 643.088 263.903 644.816 262.943C646.565 261.961 648.475 261.471 650.544 261.471C652.912 261.471 655.013 262.057 656.848 263.231C658.704 264.383 660.048 266.025 660.88 268.159H656.496C655.92 266.985 655.12 266.111 654.096 265.535C653.072 264.959 651.888 264.671 650.544 264.671C649.072 264.671 647.76 265.001 646.608 265.663C645.456 266.324 644.549 267.273 643.888 268.511C643.248 269.748 642.928 271.188 642.928 272.831C642.928 274.473 643.248 275.913 643.888 277.151C644.549 278.388 645.456 279.348 646.608 280.031C647.76 280.692 649.072 281.023 650.544 281.023C651.888 281.023 653.072 280.735 654.096 280.159C655.12 279.583 655.92 278.708 656.496 277.535H660.88C660.048 279.668 658.704 281.311 656.848 282.463C655.013 283.615 652.912 284.191 650.544 284.191C648.453 284.191 646.544 283.711 644.816 282.751C643.088 281.769 641.712 280.415 640.688 278.687C639.685 276.959 639.184 275.007 639.184 272.831ZM668.798 264.703V271.231H676.478V274.207H668.798V281.023H677.438V283.999H665.15V261.727H677.438V264.703H668.798ZM685.579 281.055H693.099V283.999H681.931V261.759H685.579V281.055ZM699.798 281.055H707.318V283.999H696.15V261.759H699.798V281.055Z" fill="white"/>
<path d="M97.481 345.332H104.296V348H94.175V327.845H97.481V345.332ZM113.992 348.261C112.484 348.261 111.121 347.923 109.903 347.246C108.685 346.55 107.728 345.583 107.032 344.346C106.336 343.089 105.988 341.639 105.988 339.996C105.988 338.372 106.345 336.932 107.061 335.675C107.776 334.418 108.752 333.452 109.99 332.775C111.227 332.098 112.609 331.76 114.137 331.76C115.664 331.76 117.046 332.098 118.284 332.775C119.521 333.452 120.497 334.418 121.213 335.675C121.928 336.932 122.286 338.372 122.286 339.996C122.286 341.62 121.918 343.06 121.184 344.317C120.449 345.574 119.444 346.55 118.168 347.246C116.911 347.923 115.519 348.261 113.992 348.261ZM113.992 345.39C114.842 345.39 115.635 345.187 116.37 344.781C117.124 344.375 117.733 343.766 118.197 342.954C118.661 342.142 118.893 341.156 118.893 339.996C118.893 338.836 118.67 337.86 118.226 337.067C117.781 336.255 117.191 335.646 116.457 335.24C115.722 334.834 114.929 334.631 114.079 334.631C113.228 334.631 112.435 334.834 111.701 335.24C110.985 335.646 110.415 336.255 109.99 337.067C109.564 337.86 109.352 338.836 109.352 339.996C109.352 341.717 109.787 343.051 110.657 343.998C111.546 344.926 112.658 345.39 113.992 345.39ZM128.86 334.341C129.343 333.529 129.981 332.901 130.774 332.456C131.586 331.992 132.543 331.76 133.645 331.76V335.182H132.804C131.509 335.182 130.523 335.511 129.846 336.168C129.189 336.825 128.86 337.966 128.86 339.59V348H125.554V332.021H128.86V334.341ZM151.329 339.619C151.329 340.218 151.29 340.76 151.213 341.243H139.004C139.1 342.519 139.574 343.544 140.425 344.317C141.275 345.09 142.319 345.477 143.557 345.477C145.335 345.477 146.592 344.733 147.327 343.244H150.894C150.41 344.713 149.531 345.922 148.255 346.869C146.998 347.797 145.432 348.261 143.557 348.261C142.029 348.261 140.657 347.923 139.439 347.246C138.24 346.55 137.293 345.583 136.597 344.346C135.92 343.089 135.582 341.639 135.582 339.996C135.582 338.353 135.91 336.912 136.568 335.675C137.244 334.418 138.182 333.452 139.381 332.775C140.599 332.098 141.991 331.76 143.557 331.76C145.065 331.76 146.408 332.089 147.588 332.746C148.767 333.403 149.685 334.331 150.343 335.53C151 336.709 151.329 338.072 151.329 339.619ZM147.878 338.575C147.858 337.357 147.423 336.381 146.573 335.646C145.722 334.911 144.668 334.544 143.412 334.544C142.271 334.544 141.295 334.911 140.483 335.646C139.671 336.361 139.187 337.338 139.033 338.575H147.878ZM173.925 331.76C175.182 331.76 176.303 332.021 177.289 332.543C178.295 333.065 179.078 333.838 179.638 334.863C180.218 335.888 180.508 337.125 180.508 338.575V348H177.231V339.068C177.231 337.637 176.874 336.545 176.158 335.791C175.443 335.018 174.467 334.631 173.229 334.631C171.992 334.631 171.006 335.018 170.271 335.791C169.556 336.545 169.198 337.637 169.198 339.068V348H165.921V339.068C165.921 337.637 165.564 336.545 164.848 335.791C164.133 335.018 163.157 334.631 161.919 334.631C160.682 334.631 159.696 335.018 158.961 335.791C158.246 336.545 157.888 337.637 157.888 339.068V348H154.582V332.021H157.888V333.848C158.43 333.191 159.116 332.678 159.947 332.311C160.779 331.944 161.668 331.76 162.615 331.76C163.891 331.76 165.032 332.031 166.037 332.572C167.043 333.113 167.816 333.896 168.357 334.921C168.841 333.954 169.595 333.191 170.619 332.63C171.644 332.05 172.746 331.76 173.925 331.76ZM193.93 329.904C193.331 329.904 192.828 329.701 192.422 329.295C192.016 328.889 191.813 328.386 191.813 327.787C191.813 327.188 192.016 326.685 192.422 326.279C192.828 325.873 193.331 325.67 193.93 325.67C194.51 325.67 195.003 325.873 195.409 326.279C195.815 326.685 196.018 327.188 196.018 327.787C196.018 328.386 195.815 328.889 195.409 329.295C195.003 329.701 194.51 329.904 193.93 329.904ZM195.554 332.021V348H192.248V332.021H195.554ZM203.201 334.37C203.761 333.635 204.525 333.017 205.492 332.514C206.458 332.011 207.551 331.76 208.769 331.76C210.161 331.76 211.427 332.108 212.568 332.804C213.728 333.481 214.636 334.438 215.294 335.675C215.951 336.912 216.28 338.333 216.28 339.938C216.28 341.543 215.951 342.983 215.294 344.259C214.636 345.516 213.728 346.502 212.568 347.217C211.427 347.913 210.161 348.261 208.769 348.261C207.551 348.261 206.468 348.019 205.521 347.536C204.573 347.033 203.8 346.415 203.201 345.68V355.598H199.895V332.021H203.201V334.37ZM212.916 339.938C212.916 338.836 212.684 337.889 212.22 337.096C211.775 336.284 211.176 335.675 210.422 335.269C209.687 334.844 208.894 334.631 208.044 334.631C207.212 334.631 206.42 334.844 205.666 335.269C204.931 335.694 204.332 336.313 203.868 337.125C203.423 337.937 203.201 338.894 203.201 339.996C203.201 341.098 203.423 342.065 203.868 342.896C204.332 343.708 204.931 344.327 205.666 344.752C206.42 345.177 207.212 345.39 208.044 345.39C208.894 345.39 209.687 345.177 210.422 344.752C211.176 344.307 211.775 343.669 212.22 342.838C212.684 342.007 212.916 341.04 212.916 339.938ZM225.349 348.261C224.092 348.261 222.961 348.039 221.956 347.594C220.97 347.13 220.187 346.511 219.607 345.738C219.027 344.945 218.718 344.066 218.679 343.099H222.101C222.159 343.776 222.478 344.346 223.058 344.81C223.657 345.255 224.402 345.477 225.291 345.477C226.219 345.477 226.934 345.303 227.437 344.955C227.959 344.588 228.22 344.124 228.22 343.563C228.22 342.964 227.93 342.519 227.35 342.229C226.789 341.939 225.89 341.62 224.653 341.272C223.454 340.943 222.478 340.624 221.724 340.315C220.97 340.006 220.313 339.532 219.752 338.894C219.211 338.256 218.94 337.415 218.94 336.371C218.94 335.52 219.191 334.747 219.694 334.051C220.197 333.336 220.912 332.775 221.84 332.369C222.787 331.963 223.87 331.76 225.088 331.76C226.905 331.76 228.365 332.224 229.467 333.152C230.588 334.061 231.188 335.308 231.265 336.893H227.959C227.901 336.178 227.611 335.607 227.089 335.182C226.567 334.757 225.861 334.544 224.972 334.544C224.102 334.544 223.435 334.708 222.971 335.037C222.507 335.366 222.275 335.801 222.275 336.342C222.275 336.767 222.43 337.125 222.739 337.415C223.048 337.705 223.425 337.937 223.87 338.111C224.315 338.266 224.972 338.469 225.842 338.72C227.002 339.029 227.949 339.348 228.684 339.677C229.438 339.986 230.086 340.45 230.627 341.069C231.168 341.688 231.449 342.509 231.468 343.534C231.468 344.443 231.217 345.255 230.714 345.97C230.211 346.685 229.496 347.246 228.568 347.652C227.659 348.058 226.586 348.261 225.349 348.261ZM249.511 332.021V348H246.205V346.115C245.683 346.772 244.997 347.294 244.146 347.681C243.315 348.048 242.426 348.232 241.478 348.232C240.222 348.232 239.091 347.971 238.085 347.449C237.099 346.927 236.316 346.154 235.736 345.129C235.176 344.104 234.895 342.867 234.895 341.417V332.021H238.172V340.924C238.172 342.355 238.53 343.457 239.245 344.23C239.961 344.984 240.937 345.361 242.174 345.361C243.412 345.361 244.388 344.984 245.103 344.23C245.838 343.457 246.205 342.355 246.205 340.924V332.021H249.511ZM273.216 331.76C274.473 331.76 275.594 332.021 276.58 332.543C277.586 333.065 278.369 333.838 278.929 334.863C279.509 335.888 279.799 337.125 279.799 338.575V348H276.522V339.068C276.522 337.637 276.165 336.545 275.449 335.791C274.734 335.018 273.758 334.631 272.52 334.631C271.283 334.631 270.297 335.018 269.562 335.791C268.847 336.545 268.489 337.637 268.489 339.068V348H265.212V339.068C265.212 337.637 264.855 336.545 264.139 335.791C263.424 335.018 262.448 334.631 261.21 334.631C259.973 334.631 258.987 335.018 258.252 335.791C257.537 336.545 257.179 337.637 257.179 339.068V348H253.873V332.021H257.179V333.848C257.721 333.191 258.407 332.678 259.238 332.311C260.07 331.944 260.959 331.76 261.906 331.76C263.182 331.76 264.323 332.031 265.328 332.572C266.334 333.113 267.107 333.896 267.648 334.921C268.132 333.954 268.886 333.191 269.91 332.63C270.935 332.05 272.037 331.76 273.216 331.76ZM290.437 339.938C290.437 338.333 290.766 336.912 291.423 335.675C292.1 334.438 293.009 333.481 294.149 332.804C295.309 332.108 296.595 331.76 298.006 331.76C299.05 331.76 300.075 331.992 301.08 332.456C302.105 332.901 302.917 333.5 303.516 334.254V326.54H306.851V348H303.516V345.593C302.975 346.366 302.221 347.004 301.254 347.507C300.307 348.01 299.215 348.261 297.977 348.261C296.585 348.261 295.309 347.913 294.149 347.217C293.009 346.502 292.1 345.516 291.423 344.259C290.766 342.983 290.437 341.543 290.437 339.938ZM303.516 339.996C303.516 338.894 303.284 337.937 302.82 337.125C302.376 336.313 301.786 335.694 301.051 335.269C300.317 334.844 299.524 334.631 298.673 334.631C297.823 334.631 297.03 334.844 296.295 335.269C295.561 335.675 294.961 336.284 294.497 337.096C294.053 337.889 293.83 338.836 293.83 339.938C293.83 341.04 294.053 342.007 294.497 342.838C294.961 343.669 295.561 344.307 296.295 344.752C297.049 345.177 297.842 345.39 298.673 345.39C299.524 345.39 300.317 345.177 301.051 344.752C301.786 344.327 302.376 343.708 302.82 342.896C303.284 342.065 303.516 341.098 303.516 339.996ZM318.125 348.261C316.617 348.261 315.254 347.923 314.036 347.246C312.818 346.55 311.861 345.583 311.165 344.346C310.469 343.089 310.121 341.639 310.121 339.996C310.121 338.372 310.478 336.932 311.194 335.675C311.909 334.418 312.885 333.452 314.123 332.775C315.36 332.098 316.742 331.76 318.27 331.76C319.797 331.76 321.179 332.098 322.417 332.775C323.654 333.452 324.63 334.418 325.346 335.675C326.061 336.932 326.419 338.372 326.419 339.996C326.419 341.62 326.051 343.06 325.317 344.317C324.582 345.574 323.577 346.55 322.301 347.246C321.044 347.923 319.652 348.261 318.125 348.261ZM318.125 345.39C318.975 345.39 319.768 345.187 320.503 344.781C321.257 344.375 321.866 343.766 322.33 342.954C322.794 342.142 323.026 341.156 323.026 339.996C323.026 338.836 322.803 337.86 322.359 337.067C321.914 336.255 321.324 335.646 320.59 335.24C319.855 334.834 319.062 334.631 318.212 334.631C317.361 334.631 316.568 334.834 315.834 335.24C315.118 335.646 314.548 336.255 314.123 337.067C313.697 337.86 313.485 338.836 313.485 339.996C313.485 341.717 313.92 343.051 314.79 343.998C315.679 344.926 316.791 345.39 318.125 345.39ZM332.993 326.54V348H329.687V326.54H332.993ZM344.264 348.261C342.756 348.261 341.393 347.923 340.175 347.246C338.957 346.55 338 345.583 337.304 344.346C336.608 343.089 336.26 341.639 336.26 339.996C336.26 338.372 336.618 336.932 337.333 335.675C338.049 334.418 339.025 333.452 340.262 332.775C341.5 332.098 342.882 331.76 344.409 331.76C345.937 331.76 347.319 332.098 348.556 332.775C349.794 333.452 350.77 334.418 351.485 335.675C352.201 336.932 352.558 338.372 352.558 339.996C352.558 341.62 352.191 343.06 351.456 344.317C350.722 345.574 349.716 346.55 348.44 347.246C347.184 347.923 345.792 348.261 344.264 348.261ZM344.264 345.39C345.115 345.39 345.908 345.187 346.642 344.781C347.396 344.375 348.005 343.766 348.469 342.954C348.933 342.142 349.165 341.156 349.165 339.996C349.165 338.836 348.943 337.86 348.498 337.067C348.054 336.255 347.464 335.646 346.729 335.24C345.995 334.834 345.202 334.631 344.351 334.631C343.501 334.631 342.708 334.834 341.973 335.24C341.258 335.646 340.688 336.255 340.262 337.067C339.837 337.86 339.624 338.836 339.624 339.996C339.624 341.717 340.059 343.051 340.929 343.998C341.819 344.926 342.93 345.39 344.264 345.39ZM359.132 334.341C359.616 333.529 360.254 332.901 361.046 332.456C361.858 331.992 362.815 331.76 363.917 331.76V335.182H363.076C361.781 335.182 360.795 335.511 360.118 336.168C359.461 336.825 359.132 337.966 359.132 339.59V348H355.826V332.021H359.132V334.341ZM380.289 348.261C379.033 348.261 377.902 348.039 376.896 347.594C375.91 347.13 375.127 346.511 374.547 345.738C373.967 344.945 373.658 344.066 373.619 343.099H377.041C377.099 343.776 377.418 344.346 377.998 344.81C378.598 345.255 379.342 345.477 380.231 345.477C381.159 345.477 381.875 345.303 382.377 344.955C382.899 344.588 383.16 344.124 383.16 343.563C383.16 342.964 382.87 342.519 382.29 342.229C381.73 341.939 380.831 341.62 379.593 341.272C378.395 340.943 377.418 340.624 376.664 340.315C375.91 340.006 375.253 339.532 374.692 338.894C374.151 338.256 373.88 337.415 373.88 336.371C373.88 335.52 374.132 334.747 374.634 334.051C375.137 333.336 375.852 332.775 376.78 332.369C377.728 331.963 378.81 331.76 380.028 331.76C381.846 331.76 383.305 332.224 384.407 333.152C385.529 334.061 386.128 335.308 386.205 336.893H382.899C382.841 336.178 382.551 335.607 382.029 335.182C381.507 334.757 380.802 334.544 379.912 334.544C379.042 334.544 378.375 334.708 377.911 335.037C377.447 335.366 377.215 335.801 377.215 336.342C377.215 336.767 377.37 337.125 377.679 337.415C377.989 337.705 378.366 337.937 378.81 338.111C379.255 338.266 379.912 338.469 380.782 338.72C381.942 339.029 382.89 339.348 383.624 339.677C384.378 339.986 385.026 340.45 385.567 341.069C386.109 341.688 386.389 342.509 386.408 343.534C386.408 344.443 386.157 345.255 385.654 345.97C385.152 346.685 384.436 347.246 383.508 347.652C382.6 348.058 381.527 348.261 380.289 348.261ZM391.663 329.904C391.063 329.904 390.561 329.701 390.155 329.295C389.749 328.889 389.546 328.386 389.546 327.787C389.546 327.188 389.749 326.685 390.155 326.279C390.561 325.873 391.063 325.67 391.663 325.67C392.243 325.67 392.736 325.873 393.142 326.279C393.548 326.685 393.751 327.188 393.751 327.787C393.751 328.386 393.548 328.889 393.142 329.295C392.736 329.701 392.243 329.904 391.663 329.904ZM393.287 332.021V348H389.981V332.021H393.287ZM401.484 334.718V343.563C401.484 344.162 401.619 344.597 401.89 344.868C402.18 345.119 402.663 345.245 403.34 345.245H405.37V348H402.76C401.271 348 400.131 347.652 399.338 346.956C398.545 346.26 398.149 345.129 398.149 343.563V334.718H396.264V332.021H398.149V328.048H401.484V332.021H405.37V334.718H401.484ZM414.848 339.938C414.848 338.333 415.177 336.912 415.834 335.675C416.511 334.438 417.42 333.481 418.56 332.804C419.72 332.108 420.996 331.76 422.388 331.76C423.645 331.76 424.737 332.011 425.665 332.514C426.613 332.997 427.367 333.606 427.927 334.341V332.021H431.262V348H427.927V345.622C427.367 346.376 426.603 347.004 425.636 347.507C424.67 348.01 423.568 348.261 422.33 348.261C420.958 348.261 419.701 347.913 418.56 347.217C417.42 346.502 416.511 345.516 415.834 344.259C415.177 342.983 414.848 341.543 414.848 339.938ZM427.927 339.996C427.927 338.894 427.695 337.937 427.231 337.125C426.787 336.313 426.197 335.694 425.462 335.269C424.728 334.844 423.935 334.631 423.084 334.631C422.234 334.631 421.441 334.844 420.706 335.269C419.972 335.675 419.372 336.284 418.908 337.096C418.464 337.889 418.241 338.836 418.241 339.938C418.241 341.04 418.464 342.007 418.908 342.838C419.372 343.669 419.972 344.307 420.706 344.752C421.46 345.177 422.253 345.39 423.084 345.39C423.935 345.39 424.728 345.177 425.462 344.752C426.197 344.327 426.787 343.708 427.231 342.896C427.695 342.065 427.927 341.098 427.927 339.996ZM454.948 331.76C456.204 331.76 457.326 332.021 458.312 332.543C459.317 333.065 460.1 333.838 460.661 334.863C461.241 335.888 461.531 337.125 461.531 338.575V348H458.254V339.068C458.254 337.637 457.896 336.545 457.181 335.791C456.465 335.018 455.489 334.631 454.252 334.631C453.014 334.631 452.028 335.018 451.294 335.791C450.578 336.545 450.221 337.637 450.221 339.068V348H446.944V339.068C446.944 337.637 446.586 336.545 445.871 335.791C445.155 335.018 444.179 334.631 442.942 334.631C441.704 334.631 440.718 335.018 439.984 335.791C439.268 336.545 438.911 337.637 438.911 339.068V348H435.605V332.021H438.911V333.848C439.452 333.191 440.138 332.678 440.97 332.311C441.801 331.944 442.69 331.76 443.638 331.76C444.914 331.76 446.054 332.031 447.06 332.572C448.065 333.113 448.838 333.896 449.38 334.921C449.863 333.954 450.617 333.191 451.642 332.63C452.666 332.05 453.768 331.76 454.948 331.76ZM480.383 339.619C480.383 340.218 480.344 340.76 480.267 341.243H468.058C468.154 342.519 468.628 343.544 469.479 344.317C470.329 345.09 471.373 345.477 472.611 345.477C474.389 345.477 475.646 344.733 476.381 343.244H479.947C479.464 344.713 478.585 345.922 477.309 346.869C476.052 347.797 474.486 348.261 472.611 348.261C471.083 348.261 469.711 347.923 468.493 347.246C467.294 346.55 466.347 345.583 465.651 344.346C464.974 343.089 464.636 341.639 464.636 339.996C464.636 338.353 464.964 336.912 465.622 335.675C466.298 334.418 467.236 333.452 468.435 332.775C469.653 332.098 471.045 331.76 472.611 331.76C474.119 331.76 475.462 332.089 476.642 332.746C477.821 333.403 478.739 334.331 479.397 335.53C480.054 336.709 480.383 338.072 480.383 339.619ZM476.932 338.575C476.912 337.357 476.477 336.381 475.627 335.646C474.776 334.911 473.722 334.544 472.466 334.544C471.325 334.544 470.349 334.911 469.537 335.646C468.725 336.361 468.241 337.338 468.087 338.575H476.932ZM487.493 334.718V343.563C487.493 344.162 487.628 344.597 487.899 344.868C488.189 345.119 488.672 345.245 489.349 345.245H491.379V348H488.769C487.28 348 486.14 347.652 485.347 346.956C484.554 346.26 484.158 345.129 484.158 343.563V334.718H482.273V332.021H484.158V328.048H487.493V332.021H491.379V334.718H487.493ZM498.051 344.027L494.542 352.031H492.396L494.455 344.027H498.051ZM93.073 383.996C93.073 382.353 93.4017 380.912 94.059 379.675C94.7357 378.418 95.6637 377.452 96.843 376.775C98.0223 376.098 99.3757 375.76 100.903 375.76C102.836 375.76 104.431 376.224 105.688 377.152C106.964 378.061 107.824 379.366 108.269 381.067H104.702C104.412 380.274 103.948 379.656 103.31 379.211C102.672 378.766 101.87 378.544 100.903 378.544C99.5497 378.544 98.467 379.027 97.655 379.994C96.8623 380.941 96.466 382.275 96.466 383.996C96.466 385.717 96.8623 387.06 97.655 388.027C98.467 388.994 99.5497 389.477 100.903 389.477C102.817 389.477 104.083 388.636 104.702 386.954H108.269C107.805 388.578 106.935 389.873 105.659 390.84C104.383 391.787 102.798 392.261 100.903 392.261C99.3757 392.261 98.0223 391.923 96.843 391.246C95.6637 390.55 94.7357 389.583 94.059 388.346C93.4017 387.089 93.073 385.639 93.073 383.996ZM118.495 392.261C116.987 392.261 115.624 391.923 114.406 391.246C113.188 390.55 112.231 389.583 111.535 388.346C110.839 387.089 110.491 385.639 110.491 383.996C110.491 382.372 110.848 380.932 111.564 379.675C112.279 378.418 113.255 377.452 114.493 376.775C115.73 376.098 117.112 375.76 118.64 375.76C120.167 375.76 121.549 376.098 122.787 376.775C124.024 377.452 125 378.418 125.716 379.675C126.431 380.932 126.789 382.372 126.789 383.996C126.789 385.62 126.421 387.06 125.687 388.317C124.952 389.574 123.947 390.55 122.671 391.246C121.414 391.923 120.022 392.261 118.495 392.261ZM118.495 389.39C119.345 389.39 120.138 389.187 120.873 388.781C121.627 388.375 122.236 387.766 122.7 386.954C123.164 386.142 123.396 385.156 123.396 383.996C123.396 382.836 123.173 381.86 122.729 381.067C122.284 380.255 121.694 379.646 120.96 379.24C120.225 378.834 119.432 378.631 118.582 378.631C117.731 378.631 116.938 378.834 116.204 379.24C115.488 379.646 114.918 380.255 114.493 381.067C114.067 381.86 113.855 382.836 113.855 383.996C113.855 385.717 114.29 387.051 115.16 387.998C116.049 388.926 117.161 389.39 118.495 389.39ZM138.119 375.76C139.376 375.76 140.497 376.021 141.483 376.543C142.488 377.065 143.271 377.838 143.832 378.863C144.393 379.888 144.673 381.125 144.673 382.575V392H141.396V383.068C141.396 381.637 141.038 380.545 140.323 379.791C139.608 379.018 138.631 378.631 137.394 378.631C136.157 378.631 135.171 379.018 134.436 379.791C133.721 380.545 133.363 381.637 133.363 383.068V392H130.057V376.021H133.363V377.848C133.904 377.191 134.591 376.678 135.422 376.311C136.273 375.944 137.172 375.76 138.119 375.76ZM154.69 392.261C153.433 392.261 152.302 392.039 151.297 391.594C150.311 391.13 149.528 390.511 148.948 389.738C148.368 388.945 148.059 388.066 148.02 387.099H151.442C151.5 387.776 151.819 388.346 152.399 388.81C152.998 389.255 153.743 389.477 154.632 389.477C155.56 389.477 156.275 389.303 156.778 388.955C157.3 388.588 157.561 388.124 157.561 387.563C157.561 386.964 157.271 386.519 156.691 386.229C156.13 385.939 155.231 385.62 153.994 385.272C152.795 384.943 151.819 384.624 151.065 384.315C150.311 384.006 149.654 383.532 149.093 382.894C148.552 382.256 148.281 381.415 148.281 380.371C148.281 379.52 148.532 378.747 149.035 378.051C149.538 377.336 150.253 376.775 151.181 376.369C152.128 375.963 153.211 375.76 154.429 375.76C156.246 375.76 157.706 376.224 158.808 377.152C159.929 378.061 160.529 379.308 160.606 380.893H157.3C157.242 380.178 156.952 379.607 156.43 379.182C155.908 378.757 155.202 378.544 154.313 378.544C153.443 378.544 152.776 378.708 152.312 379.037C151.848 379.366 151.616 379.801 151.616 380.342C151.616 380.767 151.771 381.125 152.08 381.415C152.389 381.705 152.766 381.937 153.211 382.111C153.656 382.266 154.313 382.469 155.183 382.72C156.343 383.029 157.29 383.348 158.025 383.677C158.779 383.986 159.427 384.45 159.968 385.069C160.509 385.688 160.79 386.509 160.809 387.534C160.809 388.443 160.558 389.255 160.055 389.97C159.552 390.685 158.837 391.246 157.909 391.652C157 392.058 155.927 392.261 154.69 392.261ZM179.026 383.619C179.026 384.218 178.987 384.76 178.91 385.243H166.701C166.798 386.519 167.271 387.544 168.122 388.317C168.973 389.09 170.017 389.477 171.254 389.477C173.033 389.477 174.289 388.733 175.024 387.244H178.591C178.108 388.713 177.228 389.922 175.952 390.869C174.695 391.797 173.129 392.261 171.254 392.261C169.727 392.261 168.354 391.923 167.136 391.246C165.937 390.55 164.99 389.583 164.294 388.346C163.617 387.089 163.279 385.639 163.279 383.996C163.279 382.353 163.608 380.912 164.265 379.675C164.942 378.418 165.879 377.452 167.078 376.775C168.296 376.098 169.688 375.76 171.254 375.76C172.762 375.76 174.106 376.089 175.285 376.746C176.464 377.403 177.383 378.331 178.04 379.53C178.697 380.709 179.026 382.072 179.026 383.619ZM175.575 382.575C175.556 381.357 175.121 380.381 174.27 379.646C173.419 378.911 172.366 378.544 171.109 378.544C169.968 378.544 168.992 378.911 168.18 379.646C167.368 380.361 166.885 381.338 166.73 382.575H175.575ZM181.177 383.996C181.177 382.353 181.506 380.912 182.163 379.675C182.84 378.418 183.768 377.452 184.947 376.775C186.127 376.098 187.48 375.76 189.007 375.76C190.941 375.76 192.536 376.224 193.792 377.152C195.068 378.061 195.929 379.366 196.373 381.067H192.806C192.516 380.274 192.052 379.656 191.414 379.211C190.776 378.766 189.974 378.544 189.007 378.544C187.654 378.544 186.571 379.027 185.759 379.994C184.967 380.941 184.57 382.275 184.57 383.996C184.57 385.717 184.967 387.06 185.759 388.027C186.571 388.994 187.654 389.477 189.007 389.477C190.921 389.477 192.188 388.636 192.806 386.954H196.373C195.909 388.578 195.039 389.873 193.763 390.84C192.487 391.787 190.902 392.261 189.007 392.261C187.48 392.261 186.127 391.923 184.947 391.246C183.768 390.55 182.84 389.583 182.163 388.346C181.506 387.089 181.177 385.639 181.177 383.996ZM203.525 378.718V387.563C203.525 388.162 203.66 388.597 203.931 388.868C204.221 389.119 204.704 389.245 205.381 389.245H207.411V392H204.801C203.312 392 202.172 391.652 201.379 390.956C200.586 390.26 200.19 389.129 200.19 387.563V378.718H198.305V376.021H200.19V372.048H203.525V376.021H207.411V378.718H203.525ZM225.103 383.619C225.103 384.218 225.065 384.76 224.987 385.243H212.778C212.875 386.519 213.349 387.544 214.199 388.317C215.05 389.09 216.094 389.477 217.331 389.477C219.11 389.477 220.367 388.733 221.101 387.244H224.668C224.185 388.713 223.305 389.922 222.029 390.869C220.773 391.797 219.207 392.261 217.331 392.261C215.804 392.261 214.431 391.923 213.213 391.246C212.015 390.55 211.067 389.583 210.371 388.346C209.695 387.089 209.356 385.639 209.356 383.996C209.356 382.353 209.685 380.912 210.342 379.675C211.019 378.418 211.957 377.452 213.155 376.775C214.373 376.098 215.765 375.76 217.331 375.76C218.839 375.76 220.183 376.089 221.362 376.746C222.542 377.403 223.46 378.331 224.117 379.53C224.775 380.709 225.103 382.072 225.103 383.619ZM221.652 382.575C221.633 381.357 221.198 380.381 220.347 379.646C219.497 378.911 218.443 378.544 217.186 378.544C216.046 378.544 215.069 378.911 214.257 379.646C213.445 380.361 212.962 381.338 212.807 382.575H221.652ZM232.214 378.718V387.563C232.214 388.162 232.349 388.597 232.62 388.868C232.91 389.119 233.393 389.245 234.07 389.245H236.1V392H233.49C232.001 392 230.86 391.652 230.068 390.956C229.275 390.26 228.879 389.129 228.879 387.563V378.718H226.994V376.021H228.879V372.048H232.214V376.021H236.1V378.718H232.214ZM253.618 376.021V392H250.312V390.115C249.79 390.772 249.103 391.294 248.253 391.681C247.421 392.048 246.532 392.232 245.585 392.232C244.328 392.232 243.197 391.971 242.192 391.449C241.206 390.927 240.423 390.154 239.843 389.129C239.282 388.104 239.002 386.867 239.002 385.417V376.021H242.279V384.924C242.279 386.355 242.636 387.457 243.352 388.23C244.067 388.984 245.043 389.361 246.281 389.361C247.518 389.361 248.494 388.984 249.21 388.23C249.944 387.457 250.312 386.355 250.312 384.924V376.021H253.618ZM261.286 378.341C261.769 377.529 262.407 376.901 263.2 376.456C264.012 375.992 264.969 375.76 266.071 375.76V379.182H265.23C263.934 379.182 262.948 379.511 262.272 380.168C261.614 380.825 261.286 381.966 261.286 383.59V392H257.98V376.021H261.286V378.341ZM275.541 383.938C275.541 382.333 275.869 380.912 276.527 379.675C277.203 378.438 278.112 377.481 279.253 376.804C280.413 376.108 281.689 375.76 283.081 375.76C284.337 375.76 285.43 376.011 286.358 376.514C287.305 376.997 288.059 377.606 288.62 378.341V376.021H291.955V392H288.62V389.622C288.059 390.376 287.295 391.004 286.329 391.507C285.362 392.01 284.26 392.261 283.023 392.261C281.65 392.261 280.393 391.913 279.253 391.217C278.112 390.502 277.203 389.516 276.527 388.259C275.869 386.983 275.541 385.543 275.541 383.938ZM288.62 383.996C288.62 382.894 288.388 381.937 287.924 381.125C287.479 380.313 286.889 379.694 286.155 379.269C285.42 378.844 284.627 378.631 283.777 378.631C282.926 378.631 282.133 378.844 281.399 379.269C280.664 379.675 280.065 380.284 279.601 381.096C279.156 381.889 278.934 382.836 278.934 383.938C278.934 385.04 279.156 386.007 279.601 386.838C280.065 387.669 280.664 388.307 281.399 388.752C282.153 389.177 282.945 389.39 283.777 389.39C284.627 389.39 285.42 389.177 286.155 388.752C286.889 388.327 287.479 387.708 287.924 386.896C288.388 386.065 288.62 385.098 288.62 383.996ZM295.195 383.938C295.195 382.333 295.524 380.912 296.181 379.675C296.858 378.438 297.766 377.481 298.907 376.804C300.067 376.108 301.353 375.76 302.764 375.76C303.808 375.76 304.833 375.992 305.838 376.456C306.863 376.901 307.675 377.5 308.274 378.254V370.54H311.609V392H308.274V389.593C307.733 390.366 306.979 391.004 306.012 391.507C305.065 392.01 303.972 392.261 302.735 392.261C301.343 392.261 300.067 391.913 298.907 391.217C297.766 390.502 296.858 389.516 296.181 388.259C295.524 386.983 295.195 385.543 295.195 383.938ZM308.274 383.996C308.274 382.894 308.042 381.937 307.578 381.125C307.133 380.313 306.544 379.694 305.809 379.269C305.074 378.844 304.282 378.631 303.431 378.631C302.58 378.631 301.788 378.844 301.053 379.269C300.318 379.675 299.719 380.284 299.255 381.096C298.81 381.889 298.588 382.836 298.588 383.938C298.588 385.04 298.81 386.007 299.255 386.838C299.719 387.669 300.318 388.307 301.053 388.752C301.807 389.177 302.6 389.39 303.431 389.39C304.282 389.39 305.074 389.177 305.809 388.752C306.544 388.327 307.133 387.708 307.578 386.896C308.042 386.065 308.274 385.098 308.274 383.996ZM317.633 373.904C317.034 373.904 316.531 373.701 316.125 373.295C315.719 372.889 315.516 372.386 315.516 371.787C315.516 371.188 315.719 370.685 316.125 370.279C316.531 369.873 317.034 369.67 317.633 369.67C318.213 369.67 318.706 369.873 319.112 370.279C319.518 370.685 319.721 371.188 319.721 371.787C319.721 372.386 319.518 372.889 319.112 373.295C318.706 373.701 318.213 373.904 317.633 373.904ZM319.257 376.021V392H315.951V376.021H319.257ZM326.904 378.37C327.465 377.635 328.228 377.017 329.195 376.514C330.162 376.011 331.254 375.76 332.472 375.76C333.864 375.76 335.13 376.108 336.271 376.804C337.431 377.481 338.34 378.438 338.997 379.675C339.654 380.912 339.983 382.333 339.983 383.938C339.983 385.543 339.654 386.983 338.997 388.259C338.34 389.516 337.431 390.502 336.271 391.217C335.13 391.913 333.864 392.261 332.472 392.261C331.254 392.261 330.171 392.019 329.224 391.536C328.277 391.033 327.503 390.415 326.904 389.68V399.598H323.598V376.021H326.904V378.37ZM336.619 383.938C336.619 382.836 336.387 381.889 335.923 381.096C335.478 380.284 334.879 379.675 334.125 379.269C333.39 378.844 332.598 378.631 331.747 378.631C330.916 378.631 330.123 378.844 329.369 379.269C328.634 379.694 328.035 380.313 327.571 381.125C327.126 381.937 326.904 382.894 326.904 383.996C326.904 385.098 327.126 386.065 327.571 386.896C328.035 387.708 328.634 388.327 329.369 388.752C330.123 389.177 330.916 389.39 331.747 389.39C332.598 389.39 333.39 389.177 334.125 388.752C334.879 388.307 335.478 387.669 335.923 386.838C336.387 386.007 336.619 385.04 336.619 383.938ZM344.934 373.904C344.335 373.904 343.832 373.701 343.426 373.295C343.02 372.889 342.817 372.386 342.817 371.787C342.817 371.188 343.02 370.685 343.426 370.279C343.832 369.873 344.335 369.67 344.934 369.67C345.514 369.67 346.007 369.873 346.413 370.279C346.819 370.685 347.022 371.188 347.022 371.787C347.022 372.386 346.819 372.889 346.413 373.295C346.007 373.701 345.514 373.904 344.934 373.904ZM346.558 376.021V392H343.252V376.021H346.558ZM356.699 392.261C355.442 392.261 354.311 392.039 353.306 391.594C352.32 391.13 351.537 390.511 350.957 389.738C350.377 388.945 350.067 388.066 350.029 387.099H353.451C353.509 387.776 353.828 388.346 354.408 388.81C355.007 389.255 355.751 389.477 356.641 389.477C357.569 389.477 358.284 389.303 358.787 388.955C359.309 388.588 359.57 388.124 359.57 387.563C359.57 386.964 359.28 386.519 358.7 386.229C358.139 385.939 357.24 385.62 356.003 385.272C354.804 384.943 353.828 384.624 353.074 384.315C352.32 384.006 351.662 383.532 351.102 382.894C350.56 382.256 350.29 381.415 350.29 380.371C350.29 379.52 350.541 378.747 351.044 378.051C351.546 377.336 352.262 376.775 353.19 376.369C354.137 375.963 355.22 375.76 356.438 375.76C358.255 375.76 359.715 376.224 360.817 377.152C361.938 378.061 362.537 379.308 362.615 380.893H359.309C359.251 380.178 358.961 379.607 358.439 379.182C357.917 378.757 357.211 378.544 356.322 378.544C355.452 378.544 354.785 378.708 354.321 379.037C353.857 379.366 353.625 379.801 353.625 380.342C353.625 380.767 353.779 381.125 354.089 381.415C354.398 381.705 354.775 381.937 355.22 382.111C355.664 382.266 356.322 382.469 357.192 382.72C358.352 383.029 359.299 383.348 360.034 383.677C360.788 383.986 361.435 384.45 361.977 385.069C362.518 385.688 362.798 386.509 362.818 387.534C362.818 388.443 362.566 389.255 362.064 389.97C361.561 390.685 360.846 391.246 359.918 391.652C359.009 392.058 357.936 392.261 356.699 392.261ZM365.288 383.996C365.288 382.353 365.617 380.912 366.274 379.675C366.951 378.418 367.879 377.452 369.058 376.775C370.237 376.098 371.591 375.76 373.118 375.76C375.051 375.76 376.646 376.224 377.903 377.152C379.179 378.061 380.039 379.366 380.484 381.067H376.917C376.627 380.274 376.163 379.656 375.525 379.211C374.887 378.766 374.085 378.544 373.118 378.544C371.765 378.544 370.682 379.027 369.87 379.994C369.077 380.941 368.681 382.275 368.681 383.996C368.681 385.717 369.077 387.06 369.87 388.027C370.682 388.994 371.765 389.477 373.118 389.477C375.032 389.477 376.298 388.636 376.917 386.954H380.484C380.02 388.578 379.15 389.873 377.874 390.84C376.598 391.787 375.013 392.261 373.118 392.261C371.591 392.261 370.237 391.923 369.058 391.246C367.879 390.55 366.951 389.583 366.274 388.346C365.617 387.089 365.288 385.639 365.288 383.996ZM385.461 373.904C384.861 373.904 384.359 373.701 383.953 373.295C383.547 372.889 383.344 372.386 383.344 371.787C383.344 371.188 383.547 370.685 383.953 370.279C384.359 369.873 384.861 369.67 385.461 369.67C386.041 369.67 386.534 369.873 386.94 370.279C387.346 370.685 387.549 371.188 387.549 371.787C387.549 372.386 387.346 372.889 386.94 373.295C386.534 373.701 386.041 373.904 385.461 373.904ZM387.085 376.021V392H383.779V376.021H387.085ZM399.487 375.76C400.744 375.76 401.865 376.021 402.851 376.543C403.856 377.065 404.639 377.838 405.2 378.863C405.761 379.888 406.041 381.125 406.041 382.575V392H402.764V383.068C402.764 381.637 402.406 380.545 401.691 379.791C400.976 379.018 399.999 378.631 398.762 378.631C397.525 378.631 396.539 379.018 395.804 379.791C395.089 380.545 394.731 381.637 394.731 383.068V392H391.425V376.021H394.731V377.848C395.272 377.191 395.959 376.678 396.79 376.311C397.641 375.944 398.54 375.76 399.487 375.76ZM416.696 375.76C417.933 375.76 419.026 376.011 419.973 376.514C420.94 376.997 421.694 377.606 422.235 378.341V376.021H425.57V392.261C425.57 393.73 425.261 395.035 424.642 396.176C424.023 397.336 423.124 398.245 421.945 398.902C420.785 399.559 419.393 399.888 417.769 399.888C415.604 399.888 413.806 399.376 412.375 398.351C410.944 397.346 410.132 395.973 409.939 394.233H413.216C413.467 395.064 413.999 395.731 414.811 396.234C415.642 396.756 416.628 397.017 417.769 397.017C419.103 397.017 420.176 396.611 420.988 395.799C421.819 394.987 422.235 393.808 422.235 392.261V389.593C421.674 390.347 420.911 390.985 419.944 391.507C418.997 392.01 417.914 392.261 416.696 392.261C415.304 392.261 414.028 391.913 412.868 391.217C411.727 390.502 410.819 389.516 410.142 388.259C409.485 386.983 409.156 385.543 409.156 383.938C409.156 382.333 409.485 380.912 410.142 379.675C410.819 378.438 411.727 377.481 412.868 376.804C414.028 376.108 415.304 375.76 416.696 375.76ZM422.235 383.996C422.235 382.894 422.003 381.937 421.539 381.125C421.094 380.313 420.505 379.694 419.77 379.269C419.035 378.844 418.243 378.631 417.392 378.631C416.541 378.631 415.749 378.844 415.014 379.269C414.279 379.675 413.68 380.284 413.216 381.096C412.771 381.889 412.549 382.836 412.549 383.938C412.549 385.04 412.771 386.007 413.216 386.838C413.68 387.669 414.279 388.307 415.014 388.752C415.768 389.177 416.561 389.39 417.392 389.39C418.243 389.39 419.035 389.177 419.77 388.752C420.505 388.327 421.094 387.708 421.539 386.896C422.003 386.065 422.235 385.098 422.235 383.996ZM452.091 383.619C452.091 384.218 452.052 384.76 451.975 385.243H439.766C439.862 386.519 440.336 387.544 441.187 388.317C442.037 389.09 443.081 389.477 444.319 389.477C446.097 389.477 447.354 388.733 448.089 387.244H451.656C451.172 388.713 450.293 389.922 449.017 390.869C447.76 391.797 446.194 392.261 444.319 392.261C442.791 392.261 441.419 391.923 440.201 391.246C439.002 390.55 438.055 389.583 437.359 388.346C436.682 387.089 436.344 385.639 436.344 383.996C436.344 382.353 436.672 380.912 437.33 379.675C438.006 378.418 438.944 377.452 440.143 376.775C441.361 376.098 442.753 375.76 444.319 375.76C445.827 375.76 447.17 376.089 448.35 376.746C449.529 377.403 450.447 378.331 451.105 379.53C451.762 380.709 452.091 382.072 452.091 383.619ZM448.64 382.575C448.62 381.357 448.185 380.381 447.335 379.646C446.484 378.911 445.43 378.544 444.174 378.544C443.033 378.544 442.057 378.911 441.245 379.646C440.433 380.361 439.949 381.338 439.795 382.575H448.64ZM458.65 370.54V392H455.344V370.54H458.65ZM464.672 373.904C464.073 373.904 463.57 373.701 463.164 373.295C462.758 372.889 462.555 372.386 462.555 371.787C462.555 371.188 462.758 370.685 463.164 370.279C463.57 369.873 464.073 369.67 464.672 369.67C465.252 369.67 465.745 369.873 466.151 370.279C466.557 370.685 466.76 371.188 466.76 371.787C466.76 372.386 466.557 372.889 466.151 373.295C465.745 373.701 465.252 373.904 464.672 373.904ZM466.296 376.021V392H462.99V376.021H466.296ZM474.494 378.718V387.563C474.494 388.162 474.629 388.597 474.9 388.868C475.19 389.119 475.673 389.245 476.35 389.245H478.38V392H475.77C474.281 392 473.141 391.652 472.348 390.956C471.555 390.26 471.159 389.129 471.159 387.563V378.718H469.274V376.021H471.159V372.048H474.494V376.021H478.38V378.718H474.494ZM482.761 392.203C482.162 392.203 481.659 392 481.253 391.594C480.847 391.188 480.644 390.685 480.644 390.086C480.644 389.487 480.847 388.984 481.253 388.578C481.659 388.172 482.162 387.969 482.761 387.969C483.341 387.969 483.834 388.172 484.24 388.578C484.646 388.984 484.849 389.487 484.849 390.086C484.849 390.685 484.646 391.188 484.24 391.594C483.834 392 483.341 392.203 482.761 392.203ZM502.538 371.845C504.684 371.845 506.56 372.261 508.164 373.092C509.788 373.904 511.035 375.083 511.905 376.63C512.795 378.157 513.239 379.946 513.239 381.995C513.239 384.044 512.795 385.823 511.905 387.331C511.035 388.839 509.788 389.999 508.164 390.811C506.56 391.604 504.684 392 502.538 392H495.955V371.845H502.538ZM502.538 389.303C504.897 389.303 506.705 388.665 507.961 387.389C509.218 386.113 509.846 384.315 509.846 381.995C509.846 379.656 509.218 377.829 507.961 376.514C506.705 375.199 504.897 374.542 502.538 374.542H499.261V389.303H502.538ZM523.447 392.261C521.939 392.261 520.576 391.923 519.358 391.246C518.14 390.55 517.183 389.583 516.487 388.346C515.791 387.089 515.443 385.639 515.443 383.996C515.443 382.372 515.8 380.932 516.516 379.675C517.231 378.418 518.207 377.452 519.445 376.775C520.682 376.098 522.064 375.76 523.592 375.76C525.119 375.76 526.501 376.098 527.739 376.775C528.976 377.452 529.952 378.418 530.668 379.675C531.383 380.932 531.741 382.372 531.741 383.996C531.741 385.62 531.373 387.06 530.639 388.317C529.904 389.574 528.899 390.55 527.623 391.246C526.366 391.923 524.974 392.261 523.447 392.261ZM523.447 389.39C524.297 389.39 525.09 389.187 525.825 388.781C526.579 388.375 527.188 387.766 527.652 386.954C528.116 386.142 528.348 385.156 528.348 383.996C528.348 382.836 528.125 381.86 527.681 381.067C527.236 380.255 526.646 379.646 525.912 379.24C525.177 378.834 524.384 378.631 523.534 378.631C522.683 378.631 521.89 378.834 521.156 379.24C520.44 379.646 519.87 380.255 519.445 381.067C519.019 381.86 518.807 382.836 518.807 383.996C518.807 385.717 519.242 387.051 520.112 387.998C521.001 388.926 522.113 389.39 523.447 389.39ZM543.071 375.76C544.328 375.76 545.449 376.021 546.435 376.543C547.44 377.065 548.223 377.838 548.784 378.863C549.345 379.888 549.625 381.125 549.625 382.575V392H546.348V383.068C546.348 381.637 545.99 380.545 545.275 379.791C544.56 379.018 543.583 378.631 542.346 378.631C541.109 378.631 540.123 379.018 539.388 379.791C538.673 380.545 538.315 381.637 538.315 383.068V392H535.009V376.021H538.315V377.848C538.856 377.191 539.543 376.678 540.374 376.311C541.225 375.944 542.124 375.76 543.071 375.76ZM568.487 383.619C568.487 384.218 568.448 384.76 568.371 385.243H556.162C556.259 386.519 556.732 387.544 557.583 388.317C558.434 389.09 559.478 389.477 560.715 389.477C562.494 389.477 563.75 388.733 564.485 387.244H568.052C567.569 388.713 566.689 389.922 565.413 390.869C564.156 391.797 562.59 392.261 560.715 392.261C559.188 392.261 557.815 391.923 556.597 391.246C555.398 390.55 554.451 389.583 553.755 388.346C553.078 387.089 552.74 385.639 552.74 383.996C552.74 382.353 553.069 380.912 553.726 379.675C554.403 378.418 555.34 377.452 556.539 376.775C557.757 376.098 559.149 375.76 560.715 375.76C562.223 375.76 563.567 376.089 564.746 376.746C565.925 377.403 566.844 378.331 567.501 379.53C568.158 380.709 568.487 382.072 568.487 383.619ZM565.036 382.575C565.017 381.357 564.582 380.381 563.731 379.646C562.88 378.911 561.827 378.544 560.57 378.544C559.429 378.544 558.453 378.911 557.641 379.646C556.829 380.361 556.346 381.338 556.191 382.575H565.036ZM570.638 383.996C570.638 382.353 570.967 380.912 571.624 379.675C572.301 378.418 573.229 377.452 574.408 376.775C575.588 376.098 576.941 375.76 578.468 375.76C580.402 375.76 581.997 376.224 583.253 377.152C584.529 378.061 585.39 379.366 585.834 381.067H582.267C581.977 380.274 581.513 379.656 580.875 379.211C580.237 378.766 579.435 378.544 578.468 378.544C577.115 378.544 576.032 379.027 575.22 379.994C574.428 380.941 574.031 382.275 574.031 383.996C574.031 385.717 574.428 387.06 575.22 388.027C576.032 388.994 577.115 389.477 578.468 389.477C580.382 389.477 581.649 388.636 582.267 386.954H585.834C585.37 388.578 584.5 389.873 583.224 390.84C581.948 391.787 580.363 392.261 578.468 392.261C576.941 392.261 575.588 391.923 574.408 391.246C573.229 390.55 572.301 389.583 571.624 388.346C570.967 387.089 570.638 385.639 570.638 383.996ZM108.646 420.021V436H105.34V434.115C104.818 434.772 104.132 435.294 103.281 435.681C102.45 436.048 101.56 436.232 100.613 436.232C99.3563 436.232 98.2253 435.971 97.22 435.449C96.234 434.927 95.451 434.154 94.871 433.129C94.3103 432.104 94.03 430.867 94.03 429.417V420.021H97.307V428.924C97.307 430.355 97.6647 431.457 98.38 432.23C99.0953 432.984 100.072 433.361 101.309 433.361C102.546 433.361 103.523 432.984 104.238 432.23C104.973 431.457 105.34 430.355 105.34 428.924V420.021H108.646ZM116.314 414.54V436H113.008V414.54H116.314ZM124.511 422.718V431.563C124.511 432.162 124.647 432.597 124.917 432.868C125.207 433.119 125.691 433.245 126.367 433.245H128.397V436H125.787C124.299 436 123.158 435.652 122.365 434.956C121.573 434.26 121.176 433.129 121.176 431.563V422.718H119.291V420.021H121.176V416.048H124.511V420.021H128.397V422.718H124.511ZM134.751 422.341C135.234 421.529 135.872 420.901 136.665 420.456C137.477 419.992 138.434 419.76 139.536 419.76V423.182H138.695C137.399 423.182 136.413 423.511 135.737 424.168C135.079 424.825 134.751 425.966 134.751 427.59V436H131.445V420.021H134.751V422.341ZM144.256 417.904C143.657 417.904 143.154 417.701 142.748 417.295C142.342 416.889 142.139 416.386 142.139 415.787C142.139 415.188 142.342 414.685 142.748 414.279C143.154 413.873 143.657 413.67 144.256 413.67C144.836 413.67 145.329 413.873 145.735 414.279C146.141 414.685 146.344 415.188 146.344 415.787C146.344 416.386 146.141 416.889 145.735 417.295C145.329 417.701 144.836 417.904 144.256 417.904ZM145.88 420.021V436H142.574V420.021H145.88ZM149.119 427.996C149.119 426.353 149.448 424.912 150.105 423.675C150.782 422.418 151.71 421.452 152.889 420.775C154.068 420.098 155.422 419.76 156.949 419.76C158.882 419.76 160.477 420.224 161.734 421.152C163.01 422.061 163.87 423.366 164.315 425.067H160.748C160.458 424.274 159.994 423.656 159.356 423.211C158.718 422.766 157.916 422.544 156.949 422.544C155.596 422.544 154.513 423.027 153.701 423.994C152.908 424.941 152.512 426.275 152.512 427.996C152.512 429.717 152.908 431.06 153.701 432.027C154.513 432.994 155.596 433.477 156.949 433.477C158.863 433.477 160.129 432.636 160.748 430.954H164.315C163.851 432.578 162.981 433.873 161.705 434.84C160.429 435.787 158.844 436.261 156.949 436.261C155.422 436.261 154.068 435.923 152.889 435.246C151.71 434.55 150.782 433.583 150.105 432.346C149.448 431.089 149.119 429.639 149.119 427.996ZM169.292 417.904C168.692 417.904 168.19 417.701 167.784 417.295C167.378 416.889 167.175 416.386 167.175 415.787C167.175 415.188 167.378 414.685 167.784 414.279C168.19 413.873 168.692 413.67 169.292 413.67C169.872 413.67 170.365 413.873 170.771 414.279C171.177 414.685 171.38 415.188 171.38 415.787C171.38 416.386 171.177 416.889 170.771 417.295C170.365 417.701 169.872 417.904 169.292 417.904ZM170.916 420.021V436H167.61V420.021H170.916ZM189.901 427.619C189.901 428.218 189.862 428.76 189.785 429.243H177.576C177.673 430.519 178.146 431.544 178.997 432.317C179.848 433.09 180.892 433.477 182.129 433.477C183.908 433.477 185.164 432.733 185.899 431.244H189.466C188.983 432.713 188.103 433.922 186.827 434.869C185.57 435.797 184.004 436.261 182.129 436.261C180.602 436.261 179.229 435.923 178.011 435.246C176.812 434.55 175.865 433.583 175.169 432.346C174.492 431.089 174.154 429.639 174.154 427.996C174.154 426.353 174.483 424.912 175.14 423.675C175.817 422.418 176.754 421.452 177.953 420.775C179.171 420.098 180.563 419.76 182.129 419.76C183.637 419.76 184.981 420.089 186.16 420.746C187.339 421.403 188.258 422.331 188.915 423.53C189.572 424.709 189.901 426.072 189.901 427.619ZM186.45 426.575C186.431 425.357 185.996 424.381 185.145 423.646C184.294 422.911 183.241 422.544 181.984 422.544C180.843 422.544 179.867 422.911 179.055 423.646C178.243 424.361 177.76 425.338 177.605 426.575H186.45ZM198.954 436.261C197.698 436.261 196.567 436.039 195.561 435.594C194.575 435.13 193.792 434.511 193.212 433.738C192.632 432.945 192.323 432.066 192.284 431.099H195.706C195.764 431.776 196.083 432.346 196.663 432.81C197.263 433.255 198.007 433.477 198.896 433.477C199.824 433.477 200.54 433.303 201.042 432.955C201.564 432.588 201.825 432.124 201.825 431.563C201.825 430.964 201.535 430.519 200.955 430.229C200.395 429.939 199.496 429.62 198.258 429.272C197.06 428.943 196.083 428.624 195.329 428.315C194.575 428.006 193.918 427.532 193.357 426.894C192.816 426.256 192.545 425.415 192.545 424.371C192.545 423.52 192.797 422.747 193.299 422.051C193.802 421.336 194.517 420.775 195.445 420.369C196.393 419.963 197.475 419.76 198.693 419.76C200.511 419.76 201.97 420.224 203.072 421.152C204.194 422.061 204.793 423.308 204.87 424.893H201.564C201.506 424.178 201.216 423.607 200.694 423.182C200.172 422.757 199.467 422.544 198.577 422.544C197.707 422.544 197.04 422.708 196.576 423.037C196.112 423.366 195.88 423.801 195.88 424.342C195.88 424.767 196.035 425.125 196.344 425.415C196.654 425.705 197.031 425.937 197.475 426.111C197.92 426.266 198.577 426.469 199.447 426.72C200.607 427.029 201.555 427.348 202.289 427.677C203.043 427.986 203.691 428.45 204.232 429.069C204.774 429.688 205.054 430.509 205.073 431.534C205.073 432.443 204.822 433.255 204.319 433.97C203.817 434.685 203.101 435.246 202.173 435.652C201.265 436.058 200.192 436.261 198.954 436.261ZM230.824 427.619C230.824 428.218 230.785 428.76 230.708 429.243H218.499C218.596 430.519 219.069 431.544 219.92 432.317C220.771 433.09 221.815 433.477 223.052 433.477C224.831 433.477 226.087 432.733 226.822 431.244H230.389C229.906 432.713 229.026 433.922 227.75 434.869C226.493 435.797 224.927 436.261 223.052 436.261C221.525 436.261 220.152 435.923 218.934 435.246C217.735 434.55 216.788 433.583 216.092 432.346C215.415 431.089 215.077 429.639 215.077 427.996C215.077 426.353 215.406 424.912 216.063 423.675C216.74 422.418 217.677 421.452 218.876 420.775C220.094 420.098 221.486 419.76 223.052 419.76C224.56 419.76 225.904 420.089 227.083 420.746C228.262 421.403 229.181 422.331 229.838 423.53C230.495 424.709 230.824 426.072 230.824 427.619ZM227.373 426.575C227.354 425.357 226.919 424.381 226.068 423.646C225.217 422.911 224.164 422.544 222.907 422.544C221.766 422.544 220.79 422.911 219.978 423.646C219.166 424.361 218.683 425.338 218.528 426.575H227.373ZM237.383 422.341C237.867 421.529 238.505 420.901 239.297 420.456C240.109 419.992 241.066 419.76 242.168 419.76V423.182H241.327C240.032 423.182 239.046 423.511 238.369 424.168C237.712 424.825 237.383 425.966 237.383 427.59V436H234.077V420.021H237.383V422.341ZM244.105 427.938C244.105 426.333 244.434 424.912 245.091 423.675C245.768 422.438 246.677 421.481 247.817 420.804C248.977 420.108 250.253 419.76 251.645 419.76C252.902 419.76 253.994 420.011 254.922 420.514C255.87 420.997 256.624 421.606 257.184 422.341V420.021H260.519V436H257.184V433.622C256.624 434.376 255.86 435.004 254.893 435.507C253.927 436.01 252.825 436.261 251.587 436.261C250.215 436.261 248.958 435.913 247.817 435.217C246.677 434.502 245.768 433.516 245.091 432.259C244.434 430.983 244.105 429.543 244.105 427.938ZM257.184 427.996C257.184 426.894 256.952 425.937 256.488 425.125C256.044 424.313 255.454 423.694 254.719 423.269C253.985 422.844 253.192 422.631 252.341 422.631C251.491 422.631 250.698 422.844 249.963 423.269C249.229 423.675 248.629 424.284 248.165 425.096C247.721 425.889 247.498 426.836 247.498 427.938C247.498 429.04 247.721 430.007 248.165 430.838C248.629 431.669 249.229 432.307 249.963 432.752C250.717 433.177 251.51 433.39 252.341 433.39C253.192 433.39 253.985 433.177 254.719 432.752C255.454 432.327 256.044 431.708 256.488 430.896C256.952 430.065 257.184 429.098 257.184 427.996ZM268.719 422.718V431.563C268.719 432.162 268.854 432.597 269.125 432.868C269.415 433.119 269.898 433.245 270.575 433.245H272.605V436H269.995C268.506 436 267.365 435.652 266.573 434.956C265.78 434.26 265.384 433.129 265.384 431.563V422.718H263.499V420.021H265.384V416.048H268.719V420.021H272.605V422.718H268.719ZM287.042 422.718V431.563C287.042 432.162 287.177 432.597 287.448 432.868C287.738 433.119 288.221 433.245 288.898 433.245H290.928V436H288.318C286.829 436 285.688 435.652 284.896 434.956C284.103 434.26 283.707 433.129 283.707 431.563V422.718H281.822V420.021H283.707V416.048H287.042V420.021H290.928V422.718H287.042ZM300.906 436.261C299.398 436.261 298.035 435.923 296.817 435.246C295.599 434.55 294.642 433.583 293.946 432.346C293.25 431.089 292.902 429.639 292.902 427.996C292.902 426.372 293.259 424.932 293.975 423.675C294.69 422.418 295.666 421.452 296.904 420.775C298.141 420.098 299.523 419.76 301.051 419.76C302.578 419.76 303.96 420.098 305.198 420.775C306.435 421.452 307.411 422.418 308.127 423.675C308.842 424.932 309.2 426.372 309.2 427.996C309.2 429.62 308.832 431.06 308.098 432.317C307.363 433.574 306.358 434.55 305.082 435.246C303.825 435.923 302.433 436.261 300.906 436.261ZM300.906 433.39C301.756 433.39 302.549 433.187 303.284 432.781C304.038 432.375 304.647 431.766 305.111 430.954C305.575 430.142 305.807 429.156 305.807 427.996C305.807 426.836 305.584 425.86 305.14 425.067C304.695 424.255 304.105 423.646 303.371 423.24C302.636 422.834 301.843 422.631 300.993 422.631C300.142 422.631 299.349 422.834 298.615 423.24C297.899 423.646 297.329 424.255 296.904 425.067C296.478 425.86 296.266 426.836 296.266 427.996C296.266 429.717 296.701 431.051 297.571 431.998C298.46 432.926 299.572 433.39 300.906 433.39ZM315.774 422.341C316.257 421.529 316.895 420.901 317.688 420.456C318.5 419.992 319.457 419.76 320.559 419.76V423.182H319.718C318.423 423.182 317.437 423.511 316.76 424.168C316.103 424.825 315.774 425.966 315.774 427.59V436H312.468V420.021H315.774V422.341ZM327.455 422.718V431.563C327.455 432.162 327.59 432.597 327.861 432.868C328.151 433.119 328.634 433.245 329.311 433.245H331.341V436H328.731C327.242 436 326.102 435.652 325.309 434.956C324.516 434.26 324.12 433.129 324.12 431.563V422.718H322.235V420.021H324.12V416.048H327.455V420.021H331.341V422.718H327.455ZM341.319 436.261C339.811 436.261 338.448 435.923 337.23 435.246C336.012 434.55 335.055 433.583 334.359 432.346C333.663 431.089 333.315 429.639 333.315 427.996C333.315 426.372 333.673 424.932 334.388 423.675C335.103 422.418 336.08 421.452 337.317 420.775C338.554 420.098 339.937 419.76 341.464 419.76C342.991 419.76 344.374 420.098 345.611 420.775C346.848 421.452 347.825 422.418 348.54 423.675C349.255 424.932 349.613 426.372 349.613 427.996C349.613 429.62 349.246 431.06 348.511 432.317C347.776 433.574 346.771 434.55 345.495 435.246C344.238 435.923 342.846 436.261 341.319 436.261ZM341.319 433.39C342.17 433.39 342.962 433.187 343.697 432.781C344.451 432.375 345.06 431.766 345.524 430.954C345.988 430.142 346.22 429.156 346.22 427.996C346.22 426.836 345.998 425.86 345.553 425.067C345.108 424.255 344.519 423.646 343.784 423.24C343.049 422.834 342.257 422.631 341.406 422.631C340.555 422.631 339.763 422.834 339.028 423.24C338.313 423.646 337.742 424.255 337.317 425.067C336.892 425.86 336.679 426.836 336.679 427.996C336.679 429.717 337.114 431.051 337.984 431.998C338.873 432.926 339.985 433.39 341.319 433.39ZM356.187 422.341C356.67 421.529 357.308 420.901 358.101 420.456C358.913 419.992 359.87 419.76 360.972 419.76V423.182H360.131C358.836 423.182 357.85 423.511 357.173 424.168C356.516 424.825 356.187 425.966 356.187 427.59V436H352.881V420.021H356.187V422.341ZM367.636 432.027L364.127 440.031H361.981L364.04 432.027H367.636ZM379.74 417.904C379.14 417.904 378.638 417.701 378.232 417.295C377.826 416.889 377.623 416.386 377.623 415.787C377.623 415.188 377.826 414.685 378.232 414.279C378.638 413.873 379.14 413.67 379.74 413.67C380.32 413.67 380.813 413.873 381.219 414.279C381.625 414.685 381.828 415.188 381.828 415.787C381.828 416.386 381.625 416.889 381.219 417.295C380.813 417.701 380.32 417.904 379.74 417.904ZM381.364 420.021V436H378.058V420.021H381.364ZM384.602 427.938C384.602 426.333 384.931 424.912 385.588 423.675C386.265 422.438 387.174 421.481 388.314 420.804C389.474 420.108 390.76 419.76 392.171 419.76C393.215 419.76 394.24 419.992 395.245 420.456C396.27 420.901 397.082 421.5 397.681 422.254V414.54H401.016V436H397.681V433.593C397.14 434.366 396.386 435.004 395.419 435.507C394.472 436.01 393.38 436.261 392.142 436.261C390.75 436.261 389.474 435.913 388.314 435.217C387.174 434.502 386.265 433.516 385.588 432.259C384.931 430.983 384.602 429.543 384.602 427.938ZM397.681 427.996C397.681 426.894 397.449 425.937 396.985 425.125C396.541 424.313 395.951 423.694 395.216 423.269C394.482 422.844 393.689 422.631 392.838 422.631C391.988 422.631 391.195 422.844 390.46 423.269C389.726 423.675 389.126 424.284 388.662 425.096C388.218 425.889 387.995 426.836 387.995 427.938C387.995 429.04 388.218 430.007 388.662 430.838C389.126 431.669 389.726 432.307 390.46 432.752C391.214 433.177 392.007 433.39 392.838 433.39C393.689 433.39 394.482 433.177 395.216 432.752C395.951 432.327 396.541 431.708 396.985 430.896C397.449 430.065 397.681 429.098 397.681 427.996ZM418.692 436.261C417.435 436.261 416.304 436.039 415.299 435.594C414.313 435.13 413.53 434.511 412.95 433.738C412.37 432.945 412.06 432.066 412.022 431.099H415.444C415.502 431.776 415.821 432.346 416.401 432.81C417 433.255 417.744 433.477 418.634 433.477C419.562 433.477 420.277 433.303 420.78 432.955C421.302 432.588 421.563 432.124 421.563 431.563C421.563 430.964 421.273 430.519 420.693 430.229C420.132 429.939 419.233 429.62 417.996 429.272C416.797 428.943 415.821 428.624 415.067 428.315C414.313 428.006 413.655 427.532 413.095 426.894C412.553 426.256 412.283 425.415 412.283 424.371C412.283 423.52 412.534 422.747 413.037 422.051C413.539 421.336 414.255 420.775 415.183 420.369C416.13 419.963 417.213 419.76 418.431 419.76C420.248 419.76 421.708 420.224 422.81 421.152C423.931 422.061 424.53 423.308 424.608 424.893H421.302C421.244 424.178 420.954 423.607 420.432 423.182C419.91 422.757 419.204 422.544 418.315 422.544C417.445 422.544 416.778 422.708 416.314 423.037C415.85 423.366 415.618 423.801 415.618 424.342C415.618 424.767 415.772 425.125 416.082 425.415C416.391 425.705 416.768 425.937 417.213 426.111C417.657 426.266 418.315 426.469 419.185 426.72C420.345 427.029 421.292 427.348 422.027 427.677C422.781 427.986 423.428 428.45 423.97 429.069C424.511 429.688 424.791 430.509 424.811 431.534C424.811 432.443 424.559 433.255 424.057 433.97C423.554 434.685 422.839 435.246 421.911 435.652C421.002 436.058 419.929 436.261 418.692 436.261ZM435.314 436.261C433.806 436.261 432.443 435.923 431.225 435.246C430.007 434.55 429.05 433.583 428.354 432.346C427.658 431.089 427.31 429.639 427.31 427.996C427.31 426.372 427.668 424.932 428.383 423.675C429.098 422.418 430.075 421.452 431.312 420.775C432.549 420.098 433.932 419.76 435.459 419.76C436.986 419.76 438.369 420.098 439.606 420.775C440.843 421.452 441.82 422.418 442.535 423.675C443.25 424.932 443.608 426.372 443.608 427.996C443.608 429.62 443.241 431.06 442.506 432.317C441.771 433.574 440.766 434.55 439.49 435.246C438.233 435.923 436.841 436.261 435.314 436.261ZM435.314 433.39C436.165 433.39 436.957 433.187 437.692 432.781C438.446 432.375 439.055 431.766 439.519 430.954C439.983 430.142 440.215 429.156 440.215 427.996C440.215 426.836 439.993 425.86 439.548 425.067C439.103 424.255 438.514 423.646 437.779 423.24C437.044 422.834 436.252 422.631 435.401 422.631C434.55 422.631 433.758 422.834 433.023 423.24C432.308 423.646 431.737 424.255 431.312 425.067C430.887 425.86 430.674 426.836 430.674 427.996C430.674 429.717 431.109 431.051 431.979 431.998C432.868 432.926 433.98 433.39 435.314 433.39ZM445.774 427.938C445.774 426.333 446.103 424.912 446.76 423.675C447.437 422.438 448.346 421.481 449.486 420.804C450.646 420.108 451.932 419.76 453.343 419.76C454.387 419.76 455.412 419.992 456.417 420.456C457.442 420.901 458.254 421.5 458.853 422.254V414.54H462.188V436H458.853V433.593C458.312 434.366 457.558 435.004 456.591 435.507C455.644 436.01 454.552 436.261 453.314 436.261C451.922 436.261 450.646 435.913 449.486 435.217C448.346 434.502 447.437 433.516 446.76 432.259C446.103 430.983 445.774 429.543 445.774 427.938ZM458.853 427.996C458.853 426.894 458.621 425.937 458.157 425.125C457.713 424.313 457.123 423.694 456.388 423.269C455.654 422.844 454.861 422.631 454.01 422.631C453.16 422.631 452.367 422.844 451.632 423.269C450.898 423.675 450.298 424.284 449.834 425.096C449.39 425.889 449.167 426.836 449.167 427.938C449.167 429.04 449.39 430.007 449.834 430.838C450.298 431.669 450.898 432.307 451.632 432.752C452.386 433.177 453.179 433.39 454.01 433.39C454.861 433.39 455.654 433.177 456.388 432.752C457.123 432.327 457.713 431.708 458.157 430.896C458.621 430.065 458.853 429.098 458.853 427.996ZM465.428 427.938C465.428 426.333 465.757 424.912 466.414 423.675C467.091 422.438 468 421.481 469.14 420.804C470.3 420.108 471.576 419.76 472.968 419.76C474.225 419.76 475.317 420.011 476.245 420.514C477.193 420.997 477.947 421.606 478.507 422.341V420.021H481.842V436H478.507V433.622C477.947 434.376 477.183 435.004 476.216 435.507C475.25 436.01 474.148 436.261 472.91 436.261C471.538 436.261 470.281 435.913 469.14 435.217C468 434.502 467.091 433.516 466.414 432.259C465.757 430.983 465.428 429.543 465.428 427.938ZM478.507 427.996C478.507 426.894 478.275 425.937 477.811 425.125C477.367 424.313 476.777 423.694 476.042 423.269C475.308 422.844 474.515 422.631 473.664 422.631C472.814 422.631 472.021 422.844 471.286 423.269C470.552 423.675 469.952 424.284 469.488 425.096C469.044 425.889 468.821 426.836 468.821 427.938C468.821 429.04 469.044 430.007 469.488 430.838C469.952 431.669 470.552 432.307 471.286 432.752C472.04 433.177 472.833 433.39 473.664 433.39C474.515 433.39 475.308 433.177 476.042 432.752C476.777 432.327 477.367 431.708 477.811 430.896C478.275 430.065 478.507 429.098 478.507 427.996ZM489.491 414.54V436H486.185V414.54H489.491ZM508.476 427.619C508.476 428.218 508.438 428.76 508.36 429.243H496.151C496.248 430.519 496.722 431.544 497.572 432.317C498.423 433.09 499.467 433.477 500.704 433.477C502.483 433.477 503.74 432.733 504.474 431.244H508.041C507.558 432.713 506.678 433.922 505.402 434.869C504.146 435.797 502.58 436.261 500.704 436.261C499.177 436.261 497.804 435.923 496.586 435.246C495.388 434.55 494.44 433.583 493.744 432.346C493.068 431.089 492.729 429.639 492.729 427.996C492.729 426.353 493.058 424.912 493.715 423.675C494.392 422.418 495.33 421.452 496.528 420.775C497.746 420.098 499.138 419.76 500.704 419.76C502.212 419.76 503.556 420.089 504.735 420.746C505.915 421.403 506.833 422.331 507.49 423.53C508.148 424.709 508.476 426.072 508.476 427.619ZM505.025 426.575C505.006 425.357 504.571 424.381 503.72 423.646C502.87 422.911 501.816 422.544 500.559 422.544C499.419 422.544 498.442 422.911 497.63 423.646C496.818 424.361 496.335 425.338 496.18 426.575H505.025ZM517.53 436.261C516.273 436.261 515.142 436.039 514.137 435.594C513.151 435.13 512.368 434.511 511.788 433.738C511.208 432.945 510.898 432.066 510.86 431.099H514.282C514.34 431.776 514.659 432.346 515.239 432.81C515.838 433.255 516.582 433.477 517.472 433.477C518.4 433.477 519.115 433.303 519.618 432.955C520.14 432.588 520.401 432.124 520.401 431.563C520.401 430.964 520.111 430.519 519.531 430.229C518.97 429.939 518.071 429.62 516.834 429.272C515.635 428.943 514.659 428.624 513.905 428.315C513.151 428.006 512.493 427.532 511.933 426.894C511.391 426.256 511.121 425.415 511.121 424.371C511.121 423.52 511.372 422.747 511.875 422.051C512.377 421.336 513.093 420.775 514.021 420.369C514.968 419.963 516.051 419.76 517.269 419.76C519.086 419.76 520.546 420.224 521.648 421.152C522.769 422.061 523.368 423.308 523.446 424.893H520.14C520.082 424.178 519.792 423.607 519.27 423.182C518.748 422.757 518.042 422.544 517.153 422.544C516.283 422.544 515.616 422.708 515.152 423.037C514.688 423.366 514.456 423.801 514.456 424.342C514.456 424.767 514.61 425.125 514.92 425.415C515.229 425.705 515.606 425.937 516.051 426.111C516.495 426.266 517.153 426.469 518.023 426.72C519.183 427.029 520.13 427.348 520.865 427.677C521.619 427.986 522.266 428.45 522.808 429.069C523.349 429.688 523.629 430.509 523.649 431.534C523.649 432.443 523.397 433.255 522.895 433.97C522.392 434.685 521.677 435.246 520.749 435.652C519.84 436.058 518.767 436.261 517.53 436.261ZM538.611 422.718V431.563C538.611 432.162 538.746 432.597 539.017 432.868C539.307 433.119 539.79 433.245 540.467 433.245H542.497V436H539.887C538.398 436 537.258 435.652 536.465 434.956C535.672 434.26 535.276 433.129 535.276 431.563V422.718H533.391V420.021H535.276V416.048H538.611V420.021H542.497V422.718H538.611ZM560.015 420.021V436H556.709V434.115C556.187 434.772 555.501 435.294 554.65 435.681C553.819 436.048 552.929 436.232 551.982 436.232C550.725 436.232 549.594 435.971 548.589 435.449C547.603 434.927 546.82 434.154 546.24 433.129C545.679 432.104 545.399 430.867 545.399 429.417V420.021H548.676V428.924C548.676 430.355 549.034 431.457 549.749 432.23C550.464 432.984 551.441 433.361 552.678 433.361C553.915 433.361 554.892 432.984 555.607 432.23C556.342 431.457 556.709 430.355 556.709 428.924V420.021H560.015ZM567.683 422.341C568.166 421.529 568.804 420.901 569.597 420.456C570.409 419.992 571.366 419.76 572.468 419.76V423.182H571.627C570.332 423.182 569.346 423.511 568.669 424.168C568.012 424.825 567.683 425.966 567.683 427.59V436H564.377V420.021H567.683V422.341ZM578.813 422.37C579.374 421.635 580.137 421.017 581.104 420.514C582.071 420.011 583.163 419.76 584.381 419.76C585.773 419.76 587.039 420.108 588.18 420.804C589.34 421.481 590.249 422.438 590.906 423.675C591.563 424.912 591.892 426.333 591.892 427.938C591.892 429.543 591.563 430.983 590.906 432.259C590.249 433.516 589.34 434.502 588.18 435.217C587.039 435.913 585.773 436.261 584.381 436.261C583.163 436.261 582.08 436.019 581.133 435.536C580.186 435.033 579.412 434.415 578.813 433.68V443.598H575.507V420.021H578.813V422.37ZM588.528 427.938C588.528 426.836 588.296 425.889 587.832 425.096C587.387 424.284 586.788 423.675 586.034 423.269C585.299 422.844 584.507 422.631 583.656 422.631C582.825 422.631 582.032 422.844 581.278 423.269C580.543 423.694 579.944 424.313 579.48 425.125C579.035 425.937 578.813 426.894 578.813 427.996C578.813 429.098 579.035 430.065 579.48 430.896C579.944 431.708 580.543 432.327 581.278 432.752C582.032 433.177 582.825 433.39 583.656 433.39C584.507 433.39 585.299 433.177 586.034 432.752C586.788 432.307 587.387 431.669 587.832 430.838C588.296 430.007 588.528 429.04 588.528 427.938ZM596.843 417.904C596.244 417.904 595.741 417.701 595.335 417.295C594.929 416.889 594.726 416.386 594.726 415.787C594.726 415.188 594.929 414.685 595.335 414.279C595.741 413.873 596.244 413.67 596.843 413.67C597.423 413.67 597.916 413.873 598.322 414.279C598.728 414.685 598.931 415.188 598.931 415.787C598.931 416.386 598.728 416.889 598.322 417.295C597.916 417.701 597.423 417.904 596.843 417.904ZM598.467 420.021V436H595.161V420.021H598.467ZM608.608 436.261C607.351 436.261 606.22 436.039 605.215 435.594C604.229 435.13 603.446 434.511 602.866 433.738C602.286 432.945 601.976 432.066 601.938 431.099H605.36C605.418 431.776 605.737 432.346 606.317 432.81C606.916 433.255 607.66 433.477 608.55 433.477C609.478 433.477 610.193 433.303 610.696 432.955C611.218 432.588 611.479 432.124 611.479 431.563C611.479 430.964 611.189 430.519 610.609 430.229C610.048 429.939 609.149 429.62 607.912 429.272C606.713 428.943 605.737 428.624 604.983 428.315C604.229 428.006 603.571 427.532 603.011 426.894C602.469 426.256 602.199 425.415 602.199 424.371C602.199 423.52 602.45 422.747 602.953 422.051C603.455 421.336 604.171 420.775 605.099 420.369C606.046 419.963 607.129 419.76 608.347 419.76C610.164 419.76 611.624 420.224 612.726 421.152C613.847 422.061 614.446 423.308 614.524 424.893H611.218C611.16 424.178 610.87 423.607 610.348 423.182C609.826 422.757 609.12 422.544 608.231 422.544C607.361 422.544 606.694 422.708 606.23 423.037C605.766 423.366 605.534 423.801 605.534 424.342C605.534 424.767 605.688 425.125 605.998 425.415C606.307 425.705 606.684 425.937 607.129 426.111C607.573 426.266 608.231 426.469 609.101 426.72C610.261 427.029 611.208 427.348 611.943 427.677C612.697 427.986 613.344 428.45 613.886 429.069C614.427 429.688 614.707 430.509 614.727 431.534C614.727 432.443 614.475 433.255 613.973 433.97C613.47 434.685 612.755 435.246 611.827 435.652C610.918 436.058 609.845 436.261 608.608 436.261ZM97.481 466.341C97.9643 465.529 98.6023 464.901 99.395 464.456C100.207 463.992 101.164 463.76 102.266 463.76V467.182H101.425C100.13 467.182 99.1437 467.511 98.467 468.168C97.8097 468.825 97.481 469.966 97.481 471.59V480H94.175V464.021H97.481V466.341ZM119.776 464.021V480H116.47V478.115C115.948 478.772 115.262 479.294 114.411 479.681C113.58 480.048 112.69 480.232 111.743 480.232C110.486 480.232 109.355 479.971 108.35 479.449C107.364 478.927 106.581 478.154 106.001 477.129C105.44 476.104 105.16 474.867 105.16 473.417V464.021H108.437V472.924C108.437 474.355 108.795 475.457 109.51 476.23C110.225 476.984 111.202 477.361 112.439 477.361C113.676 477.361 114.653 476.984 115.368 476.23C116.103 475.457 116.47 474.355 116.47 472.924V464.021H119.776ZM127.995 466.718V475.563C127.995 476.162 128.13 476.597 128.401 476.868C128.691 477.119 129.174 477.245 129.851 477.245H131.881V480H129.271C127.782 480 126.642 479.652 125.849 478.956C125.056 478.26 124.66 477.129 124.66 475.563V466.718H122.775V464.021H124.66V460.048H127.995V464.021H131.881V466.718H127.995ZM138.234 466.341C138.717 465.529 139.355 464.901 140.148 464.456C140.96 463.992 141.917 463.76 143.019 463.76V467.182H142.178C140.883 467.182 139.897 467.511 139.22 468.168C138.563 468.825 138.234 469.966 138.234 471.59V480H134.928V464.021H138.234V466.341ZM160.529 464.021V480H157.223V478.115C156.701 478.772 156.014 479.294 155.164 479.681C154.332 480.048 153.443 480.232 152.496 480.232C151.239 480.232 150.108 479.971 149.103 479.449C148.117 478.927 147.334 478.154 146.754 477.129C146.193 476.104 145.913 474.867 145.913 473.417V464.021H149.19V472.924C149.19 474.355 149.547 475.457 150.263 476.23C150.978 476.984 151.954 477.361 153.192 477.361C154.429 477.361 155.405 476.984 156.121 476.23C156.855 475.457 157.223 474.355 157.223 472.924V464.021H160.529ZM184.234 463.76C185.49 463.76 186.612 464.021 187.598 464.543C188.603 465.065 189.386 465.838 189.947 466.863C190.527 467.888 190.817 469.125 190.817 470.575V480H187.54V471.068C187.54 469.637 187.182 468.545 186.467 467.791C185.751 467.018 184.775 466.631 183.538 466.631C182.3 466.631 181.314 467.018 180.58 467.791C179.864 468.545 179.507 469.637 179.507 471.068V480H176.23V471.068C176.23 469.637 175.872 468.545 175.157 467.791C174.441 467.018 173.465 466.631 172.228 466.631C170.99 466.631 170.004 467.018 169.27 467.791C168.554 468.545 168.197 469.637 168.197 471.068V480H164.891V464.021H168.197V465.848C168.738 465.191 169.424 464.678 170.256 464.311C171.087 463.944 171.976 463.76 172.924 463.76C174.2 463.76 175.34 464.031 176.346 464.572C177.351 465.113 178.124 465.896 178.666 466.921C179.149 465.954 179.903 465.191 180.928 464.63C181.952 464.05 183.054 463.76 184.234 463.76ZM217.202 471.619C217.202 472.218 217.163 472.76 217.086 473.243H204.877C204.974 474.519 205.447 475.544 206.298 476.317C207.149 477.09 208.193 477.477 209.43 477.477C211.209 477.477 212.465 476.733 213.2 475.244H216.767C216.284 476.713 215.404 477.922 214.128 478.869C212.871 479.797 211.305 480.261 209.43 480.261C207.903 480.261 206.53 479.923 205.312 479.246C204.113 478.55 203.166 477.583 202.47 476.346C201.793 475.089 201.455 473.639 201.455 471.996C201.455 470.353 201.784 468.912 202.441 467.675C203.118 466.418 204.055 465.452 205.254 464.775C206.472 464.098 207.864 463.76 209.43 463.76C210.938 463.76 212.282 464.089 213.461 464.746C214.64 465.403 215.559 466.331 216.216 467.53C216.873 468.709 217.202 470.072 217.202 471.619ZM213.751 470.575C213.732 469.357 213.297 468.381 212.446 467.646C211.595 466.911 210.542 466.544 209.285 466.544C208.144 466.544 207.168 466.911 206.356 467.646C205.544 468.361 205.061 469.338 204.906 470.575H213.751ZM226.893 463.76C228.131 463.76 229.223 464.011 230.17 464.514C231.137 464.997 231.891 465.606 232.432 466.341V464.021H235.767V480.261C235.767 481.73 235.458 483.035 234.839 484.176C234.221 485.336 233.322 486.245 232.142 486.902C230.982 487.559 229.59 487.888 227.966 487.888C225.801 487.888 224.003 487.376 222.572 486.351C221.142 485.346 220.33 483.973 220.136 482.233H223.413C223.665 483.064 224.196 483.731 225.008 484.234C225.84 484.756 226.826 485.017 227.966 485.017C229.3 485.017 230.373 484.611 231.185 483.799C232.017 482.987 232.432 481.808 232.432 480.261V477.593C231.872 478.347 231.108 478.985 230.141 479.507C229.194 480.01 228.111 480.261 226.893 480.261C225.501 480.261 224.225 479.913 223.065 479.217C221.925 478.502 221.016 477.516 220.339 476.259C219.682 474.983 219.353 473.543 219.353 471.938C219.353 470.333 219.682 468.912 220.339 467.675C221.016 466.438 221.925 465.481 223.065 464.804C224.225 464.108 225.501 463.76 226.893 463.76ZM232.432 471.996C232.432 470.894 232.2 469.937 231.736 469.125C231.292 468.313 230.702 467.694 229.967 467.269C229.233 466.844 228.44 466.631 227.589 466.631C226.739 466.631 225.946 466.844 225.211 467.269C224.477 467.675 223.877 468.284 223.413 469.096C222.969 469.889 222.746 470.836 222.746 471.938C222.746 473.04 222.969 474.007 223.413 474.838C223.877 475.669 224.477 476.307 225.211 476.752C225.965 477.177 226.758 477.39 227.589 477.39C228.44 477.39 229.233 477.177 229.967 476.752C230.702 476.327 231.292 475.708 231.736 474.896C232.2 474.065 232.432 473.098 232.432 471.996ZM254.755 471.619C254.755 472.218 254.716 472.76 254.639 473.243H242.43C242.526 474.519 243 475.544 243.851 476.317C244.701 477.09 245.745 477.477 246.983 477.477C248.761 477.477 250.018 476.733 250.753 475.244H254.32C253.836 476.713 252.957 477.922 251.681 478.869C250.424 479.797 248.858 480.261 246.983 480.261C245.455 480.261 244.083 479.923 242.865 479.246C241.666 478.55 240.719 477.583 240.023 476.346C239.346 475.089 239.008 473.639 239.008 471.996C239.008 470.353 239.336 468.912 239.994 467.675C240.67 466.418 241.608 465.452 242.807 464.775C244.025 464.098 245.417 463.76 246.983 463.76C248.491 463.76 249.834 464.089 251.014 464.746C252.193 465.403 253.111 466.331 253.769 467.53C254.426 468.709 254.755 470.072 254.755 471.619ZM251.304 470.575C251.284 469.357 250.849 468.381 249.999 467.646C249.148 466.911 248.094 466.544 246.838 466.544C245.697 466.544 244.721 466.911 243.909 467.646C243.097 468.361 242.613 469.338 242.459 470.575H251.304ZM261.865 466.718V475.563C261.865 476.162 262 476.597 262.271 476.868C262.561 477.119 263.044 477.245 263.721 477.245H265.751V480H263.141C261.652 480 260.512 479.652 259.719 478.956C258.926 478.26 258.53 477.129 258.53 475.563V466.718H256.645V464.021H258.53V460.048H261.865V464.021H265.751V466.718H261.865ZM270.132 480.203C269.533 480.203 269.03 480 268.624 479.594C268.218 479.188 268.015 478.685 268.015 478.086C268.015 477.487 268.218 476.984 268.624 476.578C269.03 476.172 269.533 475.969 270.132 475.969C270.712 475.969 271.205 476.172 271.611 476.578C272.017 476.984 272.22 477.487 272.22 478.086C272.22 478.685 272.017 479.188 271.611 479.594C271.205 480 270.712 480.203 270.132 480.203Z" fill="#F6F5FB"/>
<path d="M287.73 588.895H129.95C125.229 588.895 120.554 587.965 116.192 586.158C111.831 584.352 107.868 581.704 104.529 578.366C101.191 575.028 98.5432 571.065 96.7365 566.704C94.9299 562.342 94 557.668 94 552.947C94 543.413 97.7876 534.27 104.529 527.529C111.271 520.787 120.415 517 129.95 517H287.73C297.264 517 306.408 520.787 313.15 527.529C319.892 534.27 323.679 543.413 323.679 552.947C323.679 557.668 322.75 562.342 320.943 566.704C319.136 571.065 316.488 575.028 313.15 578.366C309.812 581.704 305.849 584.352 301.487 586.158C297.125 587.965 292.451 588.895 287.73 588.895Z" fill="#F248B5"/>
<path d="M143.506 560V544.727H149.234C150.407 544.727 151.391 544.931 152.187 545.339C152.987 545.746 153.591 546.318 153.999 547.054C154.412 547.785 154.618 548.637 154.618 549.612C154.618 550.591 154.409 551.441 153.991 552.162C153.579 552.878 152.97 553.433 152.164 553.825C151.359 554.213 150.37 554.407 149.196 554.407H145.117V552.11H148.824C149.51 552.11 150.071 552.016 150.509 551.827C150.946 551.633 151.27 551.352 151.478 550.984C151.692 550.611 151.799 550.154 151.799 549.612C151.799 549.07 151.692 548.608 151.478 548.225C151.265 547.837 150.939 547.544 150.501 547.345C150.064 547.141 149.5 547.039 148.809 547.039H146.273V560H143.506ZM151.396 553.08L155.177 560H152.09L148.376 553.08H151.396ZM157.165 560V544.727H167.098V547.047H159.931V551.193H166.583V553.512H159.931V557.681H167.157V560H157.165ZM171.882 560H168.929L174.305 544.727H177.721L183.105 560H180.152L176.073 547.859H175.953L171.882 560ZM171.979 554.012H180.033V556.234H171.979V554.012ZM190.292 560H185.117V544.727H190.397C191.913 544.727 193.215 545.033 194.304 545.645C195.398 546.251 196.238 547.124 196.825 548.262C197.411 549.401 197.705 550.763 197.705 552.349C197.705 553.94 197.409 555.307 196.817 556.45C196.231 557.594 195.383 558.471 194.274 559.083C193.171 559.694 191.843 560 190.292 560ZM187.883 557.606H190.158C191.222 557.606 192.109 557.412 192.82 557.025C193.531 556.632 194.066 556.048 194.424 555.272C194.782 554.491 194.96 553.517 194.96 552.349C194.96 551.18 194.782 550.211 194.424 549.44C194.066 548.665 193.536 548.086 192.835 547.703C192.139 547.315 191.274 547.121 190.24 547.121H187.883V557.606ZM205.543 544.727H208.928L213.462 555.794H213.641L218.175 544.727H221.561V560H218.906V549.507H218.764L214.544 559.955H212.56L208.339 549.485H208.197V560H205.543V544.727ZM238.221 552.364C238.221 554.009 237.913 555.419 237.296 556.592C236.685 557.76 235.849 558.655 234.79 559.277C233.736 559.898 232.541 560.209 231.203 560.209C229.866 560.209 228.668 559.898 227.609 559.277C226.555 558.65 225.72 557.753 225.103 556.585C224.492 555.411 224.186 554.004 224.186 552.364C224.186 550.718 224.492 549.311 225.103 548.143C225.72 546.969 226.555 546.072 227.609 545.451C228.668 544.829 229.866 544.518 231.203 544.518C232.541 544.518 233.736 544.829 234.79 545.451C235.849 546.072 236.685 546.969 237.296 548.143C237.913 549.311 238.221 550.718 238.221 552.364ZM235.439 552.364C235.439 551.205 235.258 550.228 234.895 549.433C234.537 548.632 234.04 548.028 233.403 547.621C232.767 547.208 232.034 547.002 231.203 547.002C230.373 547.002 229.64 547.208 229.003 547.621C228.367 548.028 227.867 548.632 227.505 549.433C227.147 550.228 226.968 551.205 226.968 552.364C226.968 553.522 227.147 554.501 227.505 555.302C227.867 556.097 228.367 556.701 229.003 557.114C229.64 557.522 230.373 557.725 231.203 557.725C232.034 557.725 232.767 557.522 233.403 557.114C234.04 556.701 234.537 556.097 234.895 555.302C235.258 554.501 235.439 553.522 235.439 552.364ZM240.836 560V544.727H246.564C247.737 544.727 248.721 544.931 249.517 545.339C250.317 545.746 250.921 546.318 251.329 547.054C251.742 547.785 251.948 548.637 251.948 549.612C251.948 550.591 251.739 551.441 251.322 552.162C250.909 552.878 250.3 553.433 249.494 553.825C248.689 554.213 247.7 554.407 246.526 554.407H242.447V552.11H246.154C246.84 552.11 247.401 552.016 247.839 551.827C248.276 551.633 248.6 551.352 248.808 550.984C249.022 550.611 249.129 550.154 249.129 549.612C249.129 549.07 249.022 548.608 248.808 548.225C248.595 547.837 248.269 547.544 247.831 547.345C247.394 547.141 246.83 547.039 246.139 547.039H243.603V560H240.836ZM248.726 553.08L252.507 560H249.42L245.706 553.08H248.726ZM254.495 560V544.727H264.428V547.047H257.261V551.193H263.913V553.512H257.261V557.681H264.488V560H254.495Z" fill="#F6F5FB"/>
<path d="M950.194 510.671L917.48 477.959C917.324 477.819 917.19 477.657 917.08 477.48C912.946 472.846 913.785 464.678 919.077 458.088L956.665 412.036C973.801 390.986 997.967 376.727 1021.49 373.772L1042.55 371.136L1087.78 365.464L1076.66 377.207L950.194 510.671Z" fill="url(#paint1_linear_104_407)"/>
<path opacity="0.05" d="M950.194 510.671L938.97 499.447C967.579 452.222 1002.42 409.064 1042.55 371.136L1087.78 365.464L1076.66 377.207L950.194 510.671Z" fill="#21292E"/>
<path d="M1026.13 586.6L1058.86 619.332C1059 619.48 1059.16 619.614 1059.32 619.731C1063.96 623.845 1072.14 623.006 1078.71 617.634L1124.77 580.089C1145.82 562.954 1160.08 538.79 1163.04 515.284L1165.67 494.255L1171.39 449.021L1159.64 460.165L1026.13 586.6Z" fill="url(#paint2_linear_104_407)"/>
<path opacity="0.05" d="M1026.13 586.6L1037.37 597.843C1084.59 569.227 1127.75 534.385 1165.67 494.255L1171.39 449.021L1159.64 460.165L1026.13 586.6Z" fill="#21292E"/>
<path d="M1225.27 286.7C1059.06 319.532 950.194 510.671 950.194 510.671L988.141 548.616L1026.09 586.56C1026.09 586.56 1217.36 477.74 1250.12 311.543C1250.8 308.135 1250.63 304.61 1249.62 301.283C1248.61 297.956 1246.8 294.929 1244.34 292.471C1241.89 290.013 1238.86 288.2 1235.53 287.193C1232.2 286.187 1228.68 286.017 1225.27 286.7Z" fill="#FFFFFA"/>
<path d="M1193.37 373.452L1192.96 373.892C1176.7 389.868 1157.01 396.239 1148.8 388.051C1140.59 379.863 1146.96 360.092 1162.98 343.916L1163.42 343.476C1179.75 327.14 1199.71 320.59 1207.99 328.878C1216.28 337.166 1209.73 357.076 1193.37 373.452Z" fill="#460069"/>
<path opacity="0.1" d="M1192.9 366.383L1192.58 366.722C1187.52 364.662 1182.93 361.611 1179.07 357.749C1175.21 353.888 1172.16 349.293 1170.11 344.235L1170.43 343.916C1182.69 331.674 1197.65 326.761 1203.86 332.972C1210.07 339.183 1205.16 354.141 1192.9 366.383Z" fill="white"/>
<path d="M1218.74 318.073C1226.88 326.23 1234.5 334.902 1241.53 344.035C1245.06 333.352 1247.94 322.461 1250.14 311.423C1250.8 308.036 1250.62 304.538 1249.61 301.237C1248.61 297.935 1246.8 294.932 1244.36 292.492C1241.92 290.051 1238.92 288.248 1235.62 287.242C1232.32 286.235 1228.82 286.056 1225.43 286.719C1214.39 288.915 1203.5 291.79 1192.82 295.327C1201.94 302.346 1210.59 309.944 1218.74 318.073Z" fill="url(#paint3_linear_104_407)"/>
<path d="M950.194 510.671L1026.09 586.56C1024.46 588.189 1022.24 589.104 1019.94 589.104C1017.63 589.104 1015.42 588.189 1013.79 586.56L950.154 522.933C948.524 521.301 947.609 519.089 947.609 516.782C947.609 514.476 948.524 512.264 950.154 510.631L950.194 510.671Z" fill="#170947"/>
<path d="M994.612 555.186C1009.03 542.524 1025.97 526.608 1043.7 508.894C1089.98 462.602 1123.99 421.562 1119.6 417.208C1115.2 412.855 1074.18 446.845 1027.91 493.097C1010.17 510.811 994.273 527.766 981.61 542.185L994.612 555.186Z" fill="url(#paint4_linear_104_407)"/>
<path d="M1013.82 586.6L982.009 554.786L950.193 522.973C950.193 522.973 886.762 578.252 897.527 639.263C958.542 650.067 1013.82 586.6 1013.82 586.6Z" fill="url(#paint5_linear_104_407)"/>
<path opacity="0.3" d="M1003.4 576.175L982.768 555.545L962.157 534.936C962.157 534.936 914.883 576.874 919.297 619.012C961.438 623.426 1003.4 576.175 1003.4 576.175Z" fill="#FFFFFA"/>
<path opacity="0.1" d="M996.609 569.385L981.99 554.786L967.39 540.168C967.39 540.168 939.249 564.532 944.642 592.092C972.263 597.524 996.609 569.385 996.609 569.385Z" fill="#FFFFFA"/>
<g opacity="0.5">
<path d="M1148.18 695.161L1331.28 512.069" stroke="#F8469E" stroke-width="2" stroke-miterlimit="10"/>
<path d="M1327.91 515.444L1313.49 501.025L1333.18 495.733L1352.89 490.461L1347.62 510.172L1342.33 529.863L1327.91 515.444Z" fill="#F8469E"/>
</g>
<g opacity="0.5">
<path d="M742.084 501.265L925.208 318.173" stroke="#943D84" stroke-width="2" stroke-miterlimit="10"/>
<path d="M921.833 321.548L907.413 307.109L927.106 301.837L946.818 296.565L941.545 316.256L936.253 335.967L921.833 321.548Z" fill="#943D84"/>
</g>
<path opacity="0.5" d="M1090.34 346.951L1105.62 289.955L1120.88 232.979L1063.87 248.256L1006.89 263.514L1027.67 284.283L905.855 406.065L947.777 447.963L1069.57 326.182L1090.34 346.951Z" fill="url(#paint6_linear_104_407)"/>
<path opacity="0.1" d="M1299.45 441.013L1309.41 403.808L1319.38 366.603L1282.17 376.568L1244.96 386.553L1258.52 400.093L1042.37 616.237L1069.73 643.596L1285.89 427.453L1299.45 441.013Z" fill="url(#paint7_linear_104_407)"/>
<path opacity="0.1" d="M1314.55 488.664L1316.96 457.669L1285.95 460.085L1293.06 467.195L1261.38 498.869L1275.74 513.247L1307.44 481.554L1314.55 488.664Z" fill="url(#paint8_linear_104_407)"/>
<path d="M1321.84 322.507L1326.31 305.772L1330.8 289.036L1314.07 293.53L1297.33 298.003L1303.44 304.114L1279.47 328.039L1291.78 340.341L1315.72 316.416L1321.84 322.507Z" fill="url(#paint9_linear_104_407)"/>
<path d="M1223.53 386.913C1223.19 387.612 1222.85 388.311 1222.47 388.91C1265.59 438.837 1290.38 483.112 1279.37 494.195C1269.15 504.42 1230.54 483.97 1185.31 446.745C1169.45 433.724 1152.77 418.626 1136.21 402.051C1120.02 385.913 1104.65 368.97 1090.16 351.285C1053.79 306.79 1033.96 269.006 1044.06 258.9C1055.01 247.936 1098.43 272.121 1147.68 314.339L1149.68 313.261C1098.39 268.966 1054.69 245.36 1042.56 257.343C1031.38 268.526 1050.55 306.511 1088.34 352.543C1101.66 368.759 1117.3 385.994 1134.7 403.409C1151.51 420.204 1168.17 435.362 1183.91 448.383C1230.68 487.026 1269.45 506.837 1280.77 495.533C1293.09 483.451 1268.77 438.916 1223.53 386.913Z" fill="#4F0985"/>
<path d="M1146.6 556.424C1146.17 557.114 1145.7 557.78 1145.2 558.421C1162.06 584.583 1169.17 604.474 1162.26 611.403C1155.35 618.333 1134.86 610.984 1108.17 593.63C1082.21 576.794 1050.47 550.653 1019.1 519.259C986.922 487.106 960.259 454.494 943.483 428.292C927.006 402.51 920.095 382.958 926.946 376.108C933.796 369.259 952.77 375.949 977.955 391.905L979.952 390.487C953.269 373.552 933.137 367.022 925.508 374.651C917.879 382.279 924.569 402.929 941.985 430.089C958.662 456.051 985.005 488.004 1017.64 520.716C1049.47 552.53 1080.71 578.372 1106.46 595.127C1134.56 613.48 1155.91 620.77 1163.82 612.861C1171.72 604.953 1164.47 584.064 1146.6 556.424Z" fill="#4F0985"/>
<path opacity="0.5" d="M947.857 473.266L956.805 439.815L965.772 406.364L932.319 415.331L898.865 424.278L911.048 436.48L863.155 484.37L887.761 508.974L935.654 461.084L947.857 473.266Z" fill="url(#paint10_linear_104_407)"/>
<path d="M930.002 391.866L934.476 375.15L938.97 358.415L922.233 362.908L905.496 367.381L911.608 373.472L887.661 397.417L899.964 409.719L923.911 385.774L930.002 391.866Z" fill="url(#paint11_linear_104_407)"/>
</g>
<defs>
<linearGradient id="paint0_linear_104_407" x1="32.3948" y1="132.725" x2="1366.6" y2="769.725" gradientUnits="userSpaceOnUse">
<stop stop-color="white"/>
<stop offset="0.09" stop-color="white" stop-opacity="0.9"/>
<stop offset="0.54" stop-color="white" stop-opacity="0.42"/>
<stop offset="0.86" stop-color="white" stop-opacity="0.12"/>
<stop offset="1" stop-color="white" stop-opacity="0"/>
</linearGradient>
<linearGradient id="paint1_linear_104_407" x1="924.17" y1="483.411" x2="1083.9" y2="354.409" gradientUnits="userSpaceOnUse">
<stop stop-color="#6121B3"/>
<stop offset="1" stop-color="#8228BB"/>
</linearGradient>
<linearGradient id="paint2_linear_104_407" x1="1027.89" y1="611.803" x2="1187.61" y2="482.781" gradientUnits="userSpaceOnUse">
<stop stop-color="#6121B3"/>
<stop offset="1" stop-color="#8228BB"/>
</linearGradient>
<linearGradient id="paint3_linear_104_407" x1="1192.82" y1="315.138" x2="1250.53" y2="315.138" gradientUnits="userSpaceOnUse">
<stop stop-color="#6121B3"/>
<stop offset="1" stop-color="#8228BB"/>
</linearGradient>
<linearGradient id="paint4_linear_104_407" x1="981.69" y1="485.947" x2="1120.06" y2="485.947" gradientUnits="userSpaceOnUse">
<stop stop-color="#6121B3"/>
<stop offset="1" stop-color="#8228BB"/>
</linearGradient>
<linearGradient id="paint5_linear_104_407" x1="898.366" y1="635.568" x2="982.323" y2="554.681" gradientUnits="userSpaceOnUse">
<stop stop-color="#FFF6B1"/>
<stop offset="0.48" stop-color="#FDEA50"/>
<stop offset="1" stop-color="#FF7D32"/>
</linearGradient>
<linearGradient id="paint6_linear_104_407" x1="1150.11" y1="203.695" x2="936.229" y2="417.593" gradientUnits="userSpaceOnUse">
<stop stop-color="white"/>
<stop offset="1" stop-color="white" stop-opacity="0"/>
</linearGradient>
<linearGradient id="paint7_linear_104_407" x1="1056.05" y1="629.927" x2="1319.36" y2="366.6" gradientUnits="userSpaceOnUse">
<stop stop-color="white" stop-opacity="0"/>
<stop offset="1" stop-color="white"/>
</linearGradient>
<linearGradient id="paint8_linear_104_407" x1="1269.16" y1="505.466" x2="1317.7" y2="456.919" gradientUnits="userSpaceOnUse">
<stop stop-color="white" stop-opacity="0"/>
<stop offset="1" stop-color="white"/>
</linearGradient>
<linearGradient id="paint9_linear_104_407" x1="1285.97" y1="333.591" x2="1331.54" y2="288.554" gradientUnits="userSpaceOnUse">
<stop stop-color="#5622B2"/>
<stop offset="0.19" stop-color="#6024B4"/>
<stop offset="1" stop-color="#842DBA"/>
</linearGradient>
<linearGradient id="paint10_linear_104_407" x1="863.155" y1="457.669" x2="965.772" y2="457.669" gradientUnits="userSpaceOnUse">
<stop stop-color="white"/>
<stop offset="1" stop-color="white" stop-opacity="0"/>
</linearGradient>
<linearGradient id="paint11_linear_104_407" x1="894.132" y1="402.969" x2="939.705" y2="357.912" gradientUnits="userSpaceOnUse">
<stop stop-color="#5622B2"/>
<stop offset="0.19" stop-color="#6024B4"/>
<stop offset="1" stop-color="#842DBA"/>
</linearGradient>
<clipPath id="clip0_104_407">
<rect width="1390" height="873" fill="white"/>
</clipPath>
</defs>
</svg>
