<svg width="612" height="464" viewBox="0 0 612 464" fill="none" xmlns="http://www.w3.org/2000/svg">
<path d="M1.08594 247.936L87.765 334.489L286.468 217.021L463.541 345.114L525.854 317.914L569.173 349.727V463.88H1.08594V247.936Z" fill="#BA2D8D"/>
<path d="M87.7656 334.489V463.88" stroke="#A3277B" stroke-miterlimit="10" stroke-dasharray="5 5"/>
<path d="M525.555 317.914V463.88" stroke="#A3277B" stroke-miterlimit="10" stroke-dasharray="5 5"/>
<path d="M285.129 217.021V463.88" stroke="#A3277B" stroke-miterlimit="10" stroke-dasharray="5 5"/>
<path d="M209.195 278.671L176.481 245.959C176.325 245.819 176.191 245.658 176.081 245.48C171.947 240.847 172.786 232.679 178.078 226.089L215.666 180.036C232.802 158.987 256.968 144.728 280.495 141.772L301.546 139.136L346.783 133.464L335.658 145.207L209.195 278.671Z" fill="url(#paint0_linear_299_41)"/>
<path opacity="0.05" d="M209.197 278.671L197.973 267.448C226.582 220.223 261.42 177.064 301.548 139.136L346.785 133.464L335.661 145.207L209.197 278.671Z" fill="#21292E"/>
<path d="M285.129 354.6L317.863 387.332C318.002 387.48 318.156 387.614 318.323 387.731C322.956 391.845 331.145 391.006 337.715 385.634L383.771 348.089C404.822 330.954 419.082 306.79 422.038 283.284L424.674 262.255L430.386 217.021L418.643 228.165L285.129 354.6Z" fill="url(#paint1_linear_299_41)"/>
<path opacity="0.05" d="M285.129 354.6L296.373 365.843C343.595 337.227 386.749 302.385 424.674 262.255L430.386 217.021L418.643 228.165L285.129 354.6Z" fill="#21292E"/>
<path d="M484.271 54.6997C318.063 87.5315 209.195 278.671 209.195 278.671L247.142 316.616L285.089 354.56C285.089 354.56 476.362 245.74 509.117 79.5432C509.799 76.1348 509.63 72.6105 508.623 69.2834C507.616 65.9563 505.803 62.9293 503.345 60.4713C500.887 58.0133 497.859 56.2003 494.532 55.1935C491.205 54.1866 487.68 54.017 484.271 54.6997Z" fill="#FFFFFA"/>
<path d="M452.378 141.452L451.958 141.892C435.701 157.868 416.008 164.239 407.8 156.051C399.591 147.863 405.962 128.092 421.98 111.916L422.419 111.476C438.757 95.1403 458.709 88.5899 466.997 96.8777C475.286 105.166 468.735 125.076 452.378 141.452Z" fill="#460069"/>
<path opacity="0.1" d="M451.898 134.383L451.578 134.723C446.522 132.663 441.93 129.612 438.071 125.75C434.212 121.888 431.165 117.293 429.109 112.236L429.429 111.916C441.692 99.6741 456.651 94.7613 462.862 100.972C469.074 107.183 464.161 122.141 451.898 134.383Z" fill="white"/>
<path d="M477.74 86.074C485.885 94.2301 493.497 102.902 500.528 112.036C504.066 101.353 506.941 90.4611 509.136 79.4237C509.8 76.0368 509.621 72.5386 508.614 69.2372C507.607 65.9359 505.804 62.9328 503.364 60.4923C500.923 58.0518 497.92 56.2489 494.618 55.2423C491.317 54.2357 487.818 54.0563 484.431 54.72C473.393 56.9156 462.501 59.7902 451.816 63.3273C460.936 70.3464 469.595 77.9443 477.74 86.074V86.074Z" fill="url(#paint2_linear_299_41)"/>
<path d="M209.194 278.672L285.088 354.56C283.455 356.19 281.243 357.105 278.936 357.105C276.63 357.105 274.418 356.19 272.785 354.56L209.154 290.934C207.524 289.301 206.609 287.089 206.609 284.783C206.609 282.476 207.524 280.264 209.154 278.632L209.194 278.672Z" fill="#170947"/>
<path d="M253.615 323.186C268.035 310.525 284.971 294.608 302.707 276.894C348.982 230.602 382.995 189.562 378.601 185.209C374.207 180.855 333.184 214.845 286.909 261.097C269.173 278.811 253.276 295.767 240.613 310.185L253.615 323.186Z" fill="url(#paint3_linear_299_41)"/>
<path d="M272.829 354.6L241.013 322.787L209.197 290.974C209.197 290.974 145.766 346.253 156.531 407.263C217.546 418.067 272.829 354.6 272.829 354.6Z" fill="url(#paint4_linear_299_41)"/>
<path opacity="0.3" d="M262.401 344.175L241.77 323.545L221.159 302.936C221.159 302.936 173.885 344.874 178.299 387.012C220.44 391.426 262.401 344.175 262.401 344.175Z" fill="#FFFFFA"/>
<path opacity="0.1" d="M255.611 337.385L240.991 322.786L226.392 308.168C226.392 308.168 198.251 332.532 203.644 360.092C231.265 365.524 255.611 337.385 255.611 337.385Z" fill="#FFFFFA"/>
<g opacity="0.5">
<path d="M407.18 463.161L590.284 280.069" stroke="#F8469E" stroke-width="2" stroke-miterlimit="10"/>
<path d="M586.908 283.444L572.488 269.025L592.181 263.733L611.893 258.461L606.621 278.172L601.328 297.863L586.908 283.444Z" fill="#F8469E"/>
</g>
<g opacity="0.5">
<path d="M1.08594 269.265L184.21 86.1738" stroke="#943D84" stroke-width="2" stroke-miterlimit="10"/>
<path d="M180.834 89.5488L166.414 75.11L186.107 69.8377L205.819 64.5654L200.546 84.2566L195.254 103.968L180.834 89.5488Z" fill="#943D84"/>
</g>
<path opacity="0.5" d="M349.342 114.951L364.621 57.955L379.879 0.978516L322.879 16.2561L265.898 31.5137L286.669 52.2833L164.859 174.065L206.781 215.963L328.571 94.1819L349.342 114.951Z" fill="url(#paint5_linear_299_41)"/>
<path opacity="0.1" d="M558.448 209.013L568.415 171.808L578.381 134.603L541.173 144.568L503.964 154.553L517.526 168.093L301.367 384.237L328.729 411.596L544.887 195.453L558.448 209.013Z" fill="url(#paint6_linear_299_41)"/>
<path opacity="0.1" d="M573.549 256.664L575.965 225.669L544.949 228.085L552.059 235.195L520.383 266.869L534.743 281.247L566.439 249.554L573.549 256.664Z" fill="url(#paint7_linear_299_41)"/>
<path d="M580.837 90.5071L585.311 73.7716L589.805 57.0361L573.068 61.5295L556.332 66.003L562.443 72.114L538.477 96.0389L550.779 108.341L574.726 84.416L580.837 90.5071Z" fill="url(#paint8_linear_299_41)"/>
<path d="M482.534 154.913C482.194 155.612 481.855 156.311 481.475 156.91C524.595 206.837 549.381 251.112 538.376 262.195C528.15 272.42 489.544 251.97 444.307 214.745C428.449 201.724 411.773 186.626 395.216 170.051C379.021 153.913 363.649 136.97 349.16 119.285C312.791 74.7902 292.959 37.0056 303.064 26.9004C314.009 15.9365 357.429 40.121 406.68 82.3391L408.677 81.2607C357.389 36.9657 313.69 13.3603 301.567 25.3427C290.382 36.5263 309.555 74.5106 347.343 120.543C360.664 136.759 376.302 153.994 393.698 171.409C410.514 188.204 427.171 203.362 442.909 216.383C489.684 255.026 528.45 274.837 539.774 263.533C552.097 251.451 527.771 206.916 482.534 154.913Z" fill="#4F0985"/>
<path d="M405.602 324.424C405.171 325.114 404.705 325.78 404.204 326.421C421.061 352.583 428.171 372.474 421.26 379.403C414.35 386.333 393.859 378.984 367.176 361.63C341.212 344.794 309.476 318.653 278.1 287.259C245.925 255.106 219.262 222.494 202.486 196.292C186.009 170.51 179.098 150.958 185.949 144.108C192.799 137.259 211.773 143.949 236.958 159.905L238.955 158.487C212.272 141.552 192.14 135.022 184.511 142.651C176.881 150.279 183.572 170.929 200.988 198.089C217.665 224.051 244.008 256.004 276.642 288.716C308.478 320.53 339.714 346.372 365.458 363.127C393.559 381.48 414.909 388.77 422.818 380.861C430.727 372.953 423.477 352.064 405.602 324.424Z" fill="#4F0985"/>
<path opacity="0.5" d="M206.858 241.266L215.806 207.815L224.773 174.364L191.32 183.331L157.866 192.278L170.049 204.48L122.156 252.37L146.762 276.974L194.655 229.084L206.858 241.266Z" fill="url(#paint9_linear_299_41)"/>
<path d="M189.005 159.866L193.479 143.15L197.972 126.415L181.236 130.908L164.499 135.381L170.611 141.472L146.664 165.417L158.967 177.719L182.913 153.774L189.005 159.866Z" fill="url(#paint10_linear_299_41)"/>
<defs>
<linearGradient id="paint0_linear_299_41" x1="183.171" y1="251.411" x2="342.899" y2="122.409" gradientUnits="userSpaceOnUse">
<stop stop-color="#6121B3"/>
<stop offset="1" stop-color="#8228BB"/>
</linearGradient>
<linearGradient id="paint1_linear_299_41" x1="286.886" y1="379.803" x2="446.615" y2="250.781" gradientUnits="userSpaceOnUse">
<stop stop-color="#6121B3"/>
<stop offset="1" stop-color="#8228BB"/>
</linearGradient>
<linearGradient id="paint2_linear_299_41" x1="451.816" y1="83.1383" x2="509.536" y2="83.1383" gradientUnits="userSpaceOnUse">
<stop stop-color="#6121B3"/>
<stop offset="1" stop-color="#8228BB"/>
</linearGradient>
<linearGradient id="paint3_linear_299_41" x1="240.693" y1="253.948" x2="379.06" y2="253.948" gradientUnits="userSpaceOnUse">
<stop stop-color="#6121B3"/>
<stop offset="1" stop-color="#8228BB"/>
</linearGradient>
<linearGradient id="paint4_linear_299_41" x1="157.37" y1="403.569" x2="241.327" y2="322.681" gradientUnits="userSpaceOnUse">
<stop stop-color="#FFF6B1"/>
<stop offset="0.48" stop-color="#FDEA50"/>
<stop offset="1" stop-color="#FF7D32"/>
</linearGradient>
<linearGradient id="paint5_linear_299_41" x1="409.116" y1="-28.305" x2="195.233" y2="185.593" gradientUnits="userSpaceOnUse">
<stop stop-color="white"/>
<stop offset="1" stop-color="white" stop-opacity="0"/>
</linearGradient>
<linearGradient id="paint6_linear_299_41" x1="315.056" y1="397.927" x2="578.364" y2="134.6" gradientUnits="userSpaceOnUse">
<stop stop-color="white" stop-opacity="0"/>
<stop offset="1" stop-color="white"/>
</linearGradient>
<linearGradient id="paint7_linear_299_41" x1="528.159" y1="273.466" x2="576.703" y2="224.919" gradientUnits="userSpaceOnUse">
<stop stop-color="white" stop-opacity="0"/>
<stop offset="1" stop-color="white"/>
</linearGradient>
<linearGradient id="paint8_linear_299_41" x1="544.968" y1="101.591" x2="590.541" y2="56.5536" gradientUnits="userSpaceOnUse">
<stop stop-color="#5622B2"/>
<stop offset="0.19" stop-color="#6024B4"/>
<stop offset="1" stop-color="#842DBA"/>
</linearGradient>
<linearGradient id="paint9_linear_299_41" x1="122.156" y1="225.669" x2="224.773" y2="225.669" gradientUnits="userSpaceOnUse">
<stop stop-color="white"/>
<stop offset="1" stop-color="white" stop-opacity="0"/>
</linearGradient>
<linearGradient id="paint10_linear_299_41" x1="153.135" y1="170.969" x2="198.708" y2="125.912" gradientUnits="userSpaceOnUse">
<stop stop-color="#5622B2"/>
<stop offset="0.19" stop-color="#6024B4"/>
<stop offset="1" stop-color="#842DBA"/>
</linearGradient>
</defs>
</svg>
